<?xml version="1.0" encoding="UTF-8"?>
<!DOCTYPE svg PUBLIC "-//W3C//DTD SVG 1.1//EN" "http://www.w3.org/Graphics/SVG/1.1/DTD/svg11.dtd">
<svg width="233mm" height="111mm" viewBox="0 0 23300 11100" version="1.1" xmlns="http://www.w3.org/2000/svg" stroke-width="28.222" stroke-linejoin="round" xml:space="preserve">
 <path fill="rgb(255,255,255)" stroke="none" d="M 11651,11050 L 0,11050 0,0 23302,0 23302,11050 11651,11050 Z"/>
 <path fill="none" stroke="rgb(179,179,179)" stroke-linejoin="round" d="M 12147,9594 L 1458,9594 1458,221 22836,221 22836,9594 12147,9594 Z"/>
 <path fill="none" stroke="rgb(179,179,179)" stroke-linejoin="round" d="M 22836,9593 L 1458,9593"/>
 <path fill="none" stroke="rgb(179,179,179)" stroke-linejoin="round" d="M 22836,8030 L 1458,8030"/>
 <path fill="none" stroke="rgb(179,179,179)" stroke-linejoin="round" d="M 22836,6468 L 1458,6468"/>
 <path fill="none" stroke="rgb(179,179,179)" stroke-linejoin="round" d="M 22836,4907 L 1458,4907"/>
 <path fill="none" stroke="rgb(179,179,179)" stroke-linejoin="round" d="M 22836,3344 L 1458,3344"/>
 <path fill="none" stroke="rgb(179,179,179)" stroke-linejoin="round" d="M 22836,1782 L 1458,1782"/>
 <path fill="none" stroke="rgb(179,179,179)" stroke-linejoin="round" d="M 22836,220 L 1458,220"/>
 <path fill="none" stroke="rgb(179,179,179)" stroke-linejoin="round" d="M 1458,9743 L 1458,9593"/>
 <path fill="none" stroke="rgb(179,179,179)" stroke-linejoin="round" d="M 1458,9743 L 1458,9593"/>
 <path fill="none" stroke="rgb(179,179,179)" stroke-linejoin="round" d="M 2051,9743 L 2051,9593"/>
 <path fill="none" stroke="rgb(179,179,179)" stroke-linejoin="round" d="M 2051,9743 L 2051,9593"/>
 <path fill="none" stroke="rgb(179,179,179)" stroke-linejoin="round" d="M 2645,9743 L 2645,9593"/>
 <path fill="none" stroke="rgb(179,179,179)" stroke-linejoin="round" d="M 2645,9743 L 2645,9593"/>
 <path fill="none" stroke="rgb(179,179,179)" stroke-linejoin="round" d="M 3239,9743 L 3239,9593"/>
 <path fill="none" stroke="rgb(179,179,179)" stroke-linejoin="round" d="M 3239,9743 L 3239,9593"/>
 <path fill="none" stroke="rgb(179,179,179)" stroke-linejoin="round" d="M 3833,9743 L 3833,9593"/>
 <path fill="none" stroke="rgb(179,179,179)" stroke-linejoin="round" d="M 3833,9743 L 3833,9593"/>
 <path fill="none" stroke="rgb(179,179,179)" stroke-linejoin="round" d="M 4427,9743 L 4427,9593"/>
 <path fill="none" stroke="rgb(179,179,179)" stroke-linejoin="round" d="M 4427,9743 L 4427,9593"/>
 <path fill="none" stroke="rgb(179,179,179)" stroke-linejoin="round" d="M 5021,9743 L 5021,9593"/>
 <path fill="none" stroke="rgb(179,179,179)" stroke-linejoin="round" d="M 5021,9743 L 5021,9593"/>
 <path fill="none" stroke="rgb(179,179,179)" stroke-linejoin="round" d="M 5615,9743 L 5615,9593"/>
 <path fill="none" stroke="rgb(179,179,179)" stroke-linejoin="round" d="M 5615,9743 L 5615,9593"/>
 <path fill="none" stroke="rgb(179,179,179)" stroke-linejoin="round" d="M 6208,9743 L 6208,9593"/>
 <path fill="none" stroke="rgb(179,179,179)" stroke-linejoin="round" d="M 6208,9743 L 6208,9593"/>
 <path fill="none" stroke="rgb(179,179,179)" stroke-linejoin="round" d="M 6802,9743 L 6802,9593"/>
 <path fill="none" stroke="rgb(179,179,179)" stroke-linejoin="round" d="M 6802,9743 L 6802,9593"/>
 <path fill="none" stroke="rgb(179,179,179)" stroke-linejoin="round" d="M 7396,9743 L 7396,9593"/>
 <path fill="none" stroke="rgb(179,179,179)" stroke-linejoin="round" d="M 7396,9743 L 7396,9593"/>
 <path fill="none" stroke="rgb(179,179,179)" stroke-linejoin="round" d="M 7990,9743 L 7990,9593"/>
 <path fill="none" stroke="rgb(179,179,179)" stroke-linejoin="round" d="M 7990,9743 L 7990,9593"/>
 <path fill="none" stroke="rgb(179,179,179)" stroke-linejoin="round" d="M 8584,9743 L 8584,9593"/>
 <path fill="none" stroke="rgb(179,179,179)" stroke-linejoin="round" d="M 8584,9743 L 8584,9593"/>
 <path fill="none" stroke="rgb(179,179,179)" stroke-linejoin="round" d="M 9178,9743 L 9178,9593"/>
 <path fill="none" stroke="rgb(179,179,179)" stroke-linejoin="round" d="M 9178,9743 L 9178,9593"/>
 <path fill="none" stroke="rgb(179,179,179)" stroke-linejoin="round" d="M 9772,9743 L 9772,9593"/>
 <path fill="none" stroke="rgb(179,179,179)" stroke-linejoin="round" d="M 9772,9743 L 9772,9593"/>
 <path fill="none" stroke="rgb(179,179,179)" stroke-linejoin="round" d="M 10365,9743 L 10365,9593"/>
 <path fill="none" stroke="rgb(179,179,179)" stroke-linejoin="round" d="M 10365,9743 L 10365,9593"/>
 <path fill="none" stroke="rgb(179,179,179)" stroke-linejoin="round" d="M 10959,9743 L 10959,9593"/>
 <path fill="none" stroke="rgb(179,179,179)" stroke-linejoin="round" d="M 10959,9743 L 10959,9593"/>
 <path fill="none" stroke="rgb(179,179,179)" stroke-linejoin="round" d="M 11553,9743 L 11553,9593"/>
 <path fill="none" stroke="rgb(179,179,179)" stroke-linejoin="round" d="M 11553,9743 L 11553,9593"/>
 <path fill="none" stroke="rgb(179,179,179)" stroke-linejoin="round" d="M 12146,9743 L 12146,9593"/>
 <path fill="none" stroke="rgb(179,179,179)" stroke-linejoin="round" d="M 12146,9743 L 12146,9593"/>
 <path fill="none" stroke="rgb(179,179,179)" stroke-linejoin="round" d="M 12740,9743 L 12740,9593"/>
 <path fill="none" stroke="rgb(179,179,179)" stroke-linejoin="round" d="M 12740,9743 L 12740,9593"/>
 <path fill="none" stroke="rgb(179,179,179)" stroke-linejoin="round" d="M 13334,9743 L 13334,9593"/>
 <path fill="none" stroke="rgb(179,179,179)" stroke-linejoin="round" d="M 13334,9743 L 13334,9593"/>
 <path fill="none" stroke="rgb(179,179,179)" stroke-linejoin="round" d="M 13928,9743 L 13928,9593"/>
 <path fill="none" stroke="rgb(179,179,179)" stroke-linejoin="round" d="M 13928,9743 L 13928,9593"/>
 <path fill="none" stroke="rgb(179,179,179)" stroke-linejoin="round" d="M 14521,9743 L 14521,9593"/>
 <path fill="none" stroke="rgb(179,179,179)" stroke-linejoin="round" d="M 14521,9743 L 14521,9593"/>
 <path fill="none" stroke="rgb(179,179,179)" stroke-linejoin="round" d="M 15115,9743 L 15115,9593"/>
 <path fill="none" stroke="rgb(179,179,179)" stroke-linejoin="round" d="M 15115,9743 L 15115,9593"/>
 <path fill="none" stroke="rgb(179,179,179)" stroke-linejoin="round" d="M 15709,9743 L 15709,9593"/>
 <path fill="none" stroke="rgb(179,179,179)" stroke-linejoin="round" d="M 15709,9743 L 15709,9593"/>
 <path fill="none" stroke="rgb(179,179,179)" stroke-linejoin="round" d="M 16303,9743 L 16303,9593"/>
 <path fill="none" stroke="rgb(179,179,179)" stroke-linejoin="round" d="M 16303,9743 L 16303,9593"/>
 <path fill="none" stroke="rgb(179,179,179)" stroke-linejoin="round" d="M 16897,9743 L 16897,9593"/>
 <path fill="none" stroke="rgb(179,179,179)" stroke-linejoin="round" d="M 16897,9743 L 16897,9593"/>
 <path fill="none" stroke="rgb(179,179,179)" stroke-linejoin="round" d="M 17491,9743 L 17491,9593"/>
 <path fill="none" stroke="rgb(179,179,179)" stroke-linejoin="round" d="M 17491,9743 L 17491,9593"/>
 <path fill="none" stroke="rgb(179,179,179)" stroke-linejoin="round" d="M 18085,9743 L 18085,9593"/>
 <path fill="none" stroke="rgb(179,179,179)" stroke-linejoin="round" d="M 18085,9743 L 18085,9593"/>
 <path fill="none" stroke="rgb(179,179,179)" stroke-linejoin="round" d="M 18678,9743 L 18678,9593"/>
 <path fill="none" stroke="rgb(179,179,179)" stroke-linejoin="round" d="M 18678,9743 L 18678,9593"/>
 <path fill="none" stroke="rgb(179,179,179)" stroke-linejoin="round" d="M 19272,9743 L 19272,9593"/>
 <path fill="none" stroke="rgb(179,179,179)" stroke-linejoin="round" d="M 19272,9743 L 19272,9593"/>
 <path fill="none" stroke="rgb(179,179,179)" stroke-linejoin="round" d="M 19866,9743 L 19866,9593"/>
 <path fill="none" stroke="rgb(179,179,179)" stroke-linejoin="round" d="M 19866,9743 L 19866,9593"/>
 <path fill="none" stroke="rgb(179,179,179)" stroke-linejoin="round" d="M 20460,9743 L 20460,9593"/>
 <path fill="none" stroke="rgb(179,179,179)" stroke-linejoin="round" d="M 20460,9743 L 20460,9593"/>
 <path fill="none" stroke="rgb(179,179,179)" stroke-linejoin="round" d="M 21054,9743 L 21054,9593"/>
 <path fill="none" stroke="rgb(179,179,179)" stroke-linejoin="round" d="M 21054,9743 L 21054,9593"/>
 <path fill="none" stroke="rgb(179,179,179)" stroke-linejoin="round" d="M 21648,9743 L 21648,9593"/>
 <path fill="none" stroke="rgb(179,179,179)" stroke-linejoin="round" d="M 21648,9743 L 21648,9593"/>
 <path fill="none" stroke="rgb(179,179,179)" stroke-linejoin="round" d="M 22242,9743 L 22242,9593"/>
 <path fill="none" stroke="rgb(179,179,179)" stroke-linejoin="round" d="M 22242,9743 L 22242,9593"/>
 <path fill="none" stroke="rgb(179,179,179)" stroke-linejoin="round" d="M 22836,9743 L 22836,9593"/>
 <path fill="none" stroke="rgb(179,179,179)" stroke-linejoin="round" d="M 22836,9743 L 22836,9593"/>
 <path fill="none" stroke="rgb(179,179,179)" stroke-linejoin="round" d="M 1458,9593 L 22836,9593"/>
 <path fill="none" stroke="rgb(179,179,179)" stroke-linejoin="round" d="M 1308,9593 L 1458,9593"/>
 <path fill="none" stroke="rgb(179,179,179)" stroke-linejoin="round" d="M 1308,9593 L 1458,9593"/>
 <path fill="none" stroke="rgb(179,179,179)" stroke-linejoin="round" d="M 1308,8030 L 1458,8030"/>
 <path fill="none" stroke="rgb(179,179,179)" stroke-linejoin="round" d="M 1308,8030 L 1458,8030"/>
 <path fill="none" stroke="rgb(179,179,179)" stroke-linejoin="round" d="M 1308,6468 L 1458,6468"/>
 <path fill="none" stroke="rgb(179,179,179)" stroke-linejoin="round" d="M 1308,6468 L 1458,6468"/>
 <path fill="none" stroke="rgb(179,179,179)" stroke-linejoin="round" d="M 1308,4907 L 1458,4907"/>
 <path fill="none" stroke="rgb(179,179,179)" stroke-linejoin="round" d="M 1308,4907 L 1458,4907"/>
 <path fill="none" stroke="rgb(179,179,179)" stroke-linejoin="round" d="M 1308,3344 L 1458,3344"/>
 <path fill="none" stroke="rgb(179,179,179)" stroke-linejoin="round" d="M 1308,3344 L 1458,3344"/>
 <path fill="none" stroke="rgb(179,179,179)" stroke-linejoin="round" d="M 1308,1782 L 1458,1782"/>
 <path fill="none" stroke="rgb(179,179,179)" stroke-linejoin="round" d="M 1308,1782 L 1458,1782"/>
 <path fill="none" stroke="rgb(179,179,179)" stroke-linejoin="round" d="M 1308,220 L 1458,220"/>
 <path fill="none" stroke="rgb(179,179,179)" stroke-linejoin="round" d="M 1308,220 L 1458,220"/>
 <path fill="none" stroke="rgb(179,179,179)" stroke-linejoin="round" d="M 1458,9593 L 1458,220"/>
 <path fill="rgb(255,66,14)" stroke="none" d="M 22316,9593 L 22464,9593 22464,4335 22316,4335 22316,9593 Z"/>
 <path fill="rgb(255,66,14)" stroke="none" d="M 21722,9593 L 21870,9593 21870,838 21722,838 21722,9593 Z"/>
 <path fill="rgb(255,66,14)" stroke="none" d="M 21128,9593 L 21277,9593 21277,5905 21128,5905 21128,9593 Z"/>
 <path fill="rgb(255,66,14)" stroke="none" d="M 20534,9593 L 20683,9593 20683,5166 20534,5166 20534,9593 Z"/>
 <path fill="rgb(255,66,14)" stroke="none" d="M 19940,9593 L 20089,9593 20089,3157 19940,3157 19940,9593 Z"/>
 <path fill="rgb(255,66,14)" stroke="none" d="M 19347,9593 L 19495,9593 19495,5410 19347,5410 19347,9593 Z"/>
 <path fill="rgb(255,66,14)" stroke="none" d="M 18753,9593 L 18901,9593 18901,4897 18753,4897 18753,9593 Z"/>
 <path fill="rgb(255,66,14)" stroke="none" d="M 18159,9593 L 18307,9593 18307,4669 18159,4669 18159,9593 Z"/>
 <path fill="rgb(255,66,14)" stroke="none" d="M 17565,9593 L 17713,9593 17713,4344 17565,4344 17565,9593 Z"/>
 <path fill="rgb(255,66,14)" stroke="none" d="M 16971,9593 L 17120,9593 17120,5525 16971,5525 16971,9593 Z"/>
 <path fill="rgb(255,66,14)" stroke="none" d="M 16377,9593 L 16526,9593 16526,5843 16377,5843 16377,9593 Z"/>
 <path fill="rgb(255,66,14)" stroke="none" d="M 15783,9593 L 15932,9593 15932,6749 15783,6749 15783,9593 Z"/>
 <path fill="rgb(255,66,14)" stroke="none" d="M 15190,9593 L 15338,9593 15338,6721 15190,6721 15190,9593 Z"/>
 <path fill="rgb(255,66,14)" stroke="none" d="M 14596,9593 L 14744,9593 14744,4853 14596,4853 14596,9593 Z"/>
 <path fill="rgb(255,66,14)" stroke="none" d="M 14002,9593 L 14150,9593 14150,6449 14002,6449 14002,9593 Z"/>
 <path fill="rgb(255,66,14)" stroke="none" d="M 13408,9593 L 13556,9593 13556,7133 13408,7133 13408,9593 Z"/>
 <path fill="rgb(255,66,14)" stroke="none" d="M 12814,9593 L 12963,9593 12963,6983 12814,6983 12814,9593 Z"/>
 <path fill="rgb(255,66,14)" stroke="none" d="M 12220,9593 L 12369,9593 12369,6230 12220,6230 12220,9593 Z"/>
 <path fill="rgb(255,66,14)" stroke="none" d="M 11627,9593 L 11775,9593 11775,7361 11627,7361 11627,9593 Z"/>
 <path fill="rgb(255,66,14)" stroke="none" d="M 11034,9593 L 11182,9593 11182,7518 11034,7518 11034,9593 Z"/>
 <path fill="rgb(255,66,14)" stroke="none" d="M 10440,9593 L 10588,9593 10588,6883 10440,6883 10440,9593 Z"/>
 <path fill="rgb(255,66,14)" stroke="none" d="M 9846,9593 L 9994,9593 9994,6518 9846,6518 9846,9593 Z"/>
 <path fill="rgb(255,66,14)" stroke="none" d="M 9252,9593 L 9400,9593 9400,7343 9252,7343 9252,9593 Z"/>
 <path fill="rgb(255,66,14)" stroke="none" d="M 8658,9593 L 8807,9593 8807,6680 8658,6680 8658,9593 Z"/>
 <path fill="rgb(255,66,14)" stroke="none" d="M 8064,9593 L 8213,9593 8213,6940 8064,6940 8064,9593 Z"/>
 <path fill="rgb(255,66,14)" stroke="none" d="M 7470,9593 L 7619,9593 7619,6602 7470,6602 7470,9593 Z"/>
 <path fill="rgb(255,66,14)" stroke="none" d="M 6876,9593 L 7025,9593 7025,7649 6876,7649 6876,9593 Z"/>
 <path fill="rgb(255,66,14)" stroke="none" d="M 6283,9593 L 6431,9593 6431,7755 6283,7755 6283,9593 Z"/>
 <path fill="rgb(255,66,14)" stroke="none" d="M 5689,9593 L 5837,9593 5837,7268 5689,7268 5689,9593 Z"/>
 <path fill="rgb(255,66,14)" stroke="none" d="M 5095,9593 L 5243,9593 5243,7602 5095,7602 5095,9593 Z"/>
 <path fill="rgb(255,66,14)" stroke="none" d="M 4501,9593 L 4650,9593 4650,8302 4501,8302 4501,9593 Z"/>
 <path fill="rgb(255,66,14)" stroke="none" d="M 3907,9593 L 4056,9593 4056,7411 3907,7411 3907,9593 Z"/>
 <path fill="rgb(255,66,14)" stroke="none" d="M 3313,9593 L 3462,9593 3462,8086 3313,8086 3313,9593 Z"/>
 <path fill="rgb(255,66,14)" stroke="none" d="M 2719,9593 L 2868,9593 2868,8236 2719,8236 2719,9593 Z"/>
 <path fill="rgb(255,66,14)" stroke="none" d="M 2126,9593 L 2274,9593 2274,8177 2126,8177 2126,9593 Z"/>
 <path fill="rgb(255,66,14)" stroke="none" d="M 1532,9593 L 1680,9593 1680,8846 1532,8846 1532,9593 Z"/>
 <path fill="rgb(0,69,134)" stroke="none" d="M 22464,9593 L 22613,9593 22613,7674 22464,7674 22464,9593 Z"/>
 <path fill="rgb(0,69,134)" stroke="none" d="M 21870,9593 L 22019,9593 22019,7390 21870,7390 21870,9593 Z"/>
 <path fill="rgb(0,69,134)" stroke="none" d="M 21277,9593 L 21425,9593 21425,8261 21277,8261 21277,9593 Z"/>
 <path fill="rgb(0,69,134)" stroke="none" d="M 20683,9593 L 20831,9593 20831,7824 20683,7824 20683,9593 Z"/>
 <path fill="rgb(0,69,134)" stroke="none" d="M 20089,9593 L 20237,9593 20237,6655 20089,6655 20089,9593 Z"/>
 <path fill="rgb(0,69,134)" stroke="none" d="M 19495,9593 L 19643,9593 19643,7911 19495,7911 19495,9593 Z"/>
 <path fill="rgb(0,69,134)" stroke="none" d="M 18901,9593 L 19050,9593 19050,7274 18901,7274 18901,9593 Z"/>
 <path fill="rgb(0,69,134)" stroke="none" d="M 18307,9593 L 18456,9593 18456,7411 18307,7411 18307,9593 Z"/>
 <path fill="rgb(0,69,134)" stroke="none" d="M 17713,9593 L 17862,9593 17862,6833 17713,6833 17713,9593 Z"/>
 <path fill="rgb(0,69,134)" stroke="none" d="M 17120,9593 L 17268,9593 17268,7436 17120,7436 17120,9593 Z"/>
 <path fill="rgb(0,69,134)" stroke="none" d="M 16526,9593 L 16674,9593 16674,7961 16526,7961 16526,9593 Z"/>
 <path fill="rgb(0,69,134)" stroke="none" d="M 15932,9593 L 16080,9593 16080,8527 15932,8527 15932,9593 Z"/>
 <path fill="rgb(0,69,134)" stroke="none" d="M 15338,9593 L 15486,9593 15486,9014 15338,9014 15338,9593 Z"/>
 <path fill="rgb(0,69,134)" stroke="none" d="M 14744,9593 L 14893,9593 14893,7955 14744,7955 14744,9593 Z"/>
 <path fill="rgb(0,69,134)" stroke="none" d="M 14150,9593 L 14299,9593 14299,8796 14150,8796 14150,9593 Z"/>
 <path fill="rgb(0,69,134)" stroke="none" d="M 13556,9593 L 13705,9593 13705,8836 13556,8836 13556,9593 Z"/>
 <path fill="rgb(0,69,134)" stroke="none" d="M 12963,9593 L 13111,9593 13111,8702 12963,8702 12963,9593 Z"/>
 <path fill="rgb(0,69,134)" stroke="none" d="M 12369,9593 L 12517,9593 12517,8358 12369,8358 12369,9593 Z"/>
 <path fill="rgb(0,69,134)" stroke="none" d="M 11775,9593 L 11923,9593 11923,8955 11775,8955 11775,9593 Z"/>
 <path fill="rgb(0,69,134)" stroke="none" d="M 11182,9593 L 11330,9593 11330,8939 11182,8939 11182,9593 Z"/>
 <path fill="rgb(0,69,134)" stroke="none" d="M 10588,9593 L 10737,9593 10737,8702 10588,8702 10588,9593 Z"/>
 <path fill="rgb(0,69,134)" stroke="none" d="M 9994,9593 L 10143,9593 10143,8649 9994,8649 9994,9593 Z"/>
 <path fill="rgb(0,69,134)" stroke="none" d="M 9400,9593 L 9549,9593 9549,8614 9400,8614 9400,9593 Z"/>
 <path fill="rgb(0,69,134)" stroke="none" d="M 8807,9593 L 8955,9593 8955,8627 8807,8627 8807,9593 Z"/>
 <path fill="rgb(0,69,134)" stroke="none" d="M 8213,9593 L 8361,9593 8361,8571 8213,8571 8213,9593 Z"/>
 <path fill="rgb(0,69,134)" stroke="none" d="M 7619,9593 L 7767,9593 7767,8099 7619,8099 7619,9593 Z"/>
 <path fill="rgb(0,69,134)" stroke="none" d="M 7025,9593 L 7173,9593 7173,8811 7025,8811 7025,9593 Z"/>
 <path fill="rgb(0,69,134)" stroke="none" d="M 6431,9593 L 6580,9593 6580,8743 6431,8743 6431,9593 Z"/>
 <path fill="rgb(0,69,134)" stroke="none" d="M 5837,9593 L 5986,9593 5986,8830 5837,8830 5837,9593 Z"/>
 <path fill="rgb(0,69,134)" stroke="none" d="M 5243,9593 L 5392,9593 5392,8618 5243,8618 5243,9593 Z"/>
 <path fill="rgb(0,69,134)" stroke="none" d="M 4650,9593 L 4798,9593 4798,9111 4650,9111 4650,9593 Z"/>
 <path fill="rgb(0,69,134)" stroke="none" d="M 4056,9593 L 4204,9593 4204,8886 4056,8886 4056,9593 Z"/>
 <path fill="rgb(0,69,134)" stroke="none" d="M 3462,9593 L 3610,9593 3610,9108 3462,9108 3462,9593 Z"/>
 <path fill="rgb(0,69,134)" stroke="none" d="M 2868,9593 L 3016,9593 3016,9168 2868,9168 2868,9593 Z"/>
 <path fill="rgb(0,69,134)" stroke="none" d="M 2274,9593 L 2423,9593 2423,9055 2274,9055 2274,9593 Z"/>
 <path fill="rgb(0,69,134)" stroke="none" d="M 1680,9593 L 1829,9593 1829,9324 1680,9324 1680,9593 Z"/>
 <path fill="rgb(255,211,32)" stroke="none" d="M 22613,9593 L 22761,9593 22761,8005 22613,8005 22613,9593 Z"/>
 <path fill="rgb(255,211,32)" stroke="none" d="M 22019,9593 L 22167,9593 22167,8071 22019,8071 22019,9593 Z"/>
 <path fill="rgb(255,211,32)" stroke="none" d="M 21425,9593 L 21574,9593 21574,8455 21425,8455 21425,9593 Z"/>
 <path fill="rgb(255,211,32)" stroke="none" d="M 20831,9593 L 20980,9593 20980,8149 20831,8149 20831,9593 Z"/>
 <path fill="rgb(255,211,32)" stroke="none" d="M 20237,9593 L 20386,9593 20386,7062 20237,7062 20237,9593 Z"/>
 <path fill="rgb(255,211,32)" stroke="none" d="M 19643,9593 L 19792,9593 19792,8227 19643,8227 19643,9593 Z"/>
 <path fill="rgb(255,211,32)" stroke="none" d="M 19050,9593 L 19198,9593 19198,7961 19050,7961 19050,9593 Z"/>
 <path fill="rgb(255,211,32)" stroke="none" d="M 18456,9593 L 18604,9593 18604,7840 18456,7840 18456,9593 Z"/>
 <path fill="rgb(255,211,32)" stroke="none" d="M 17862,9593 L 18010,9593 18010,7652 17862,7652 17862,9593 Z"/>
 <path fill="rgb(255,211,32)" stroke="none" d="M 17268,9593 L 17417,9593 17417,8021 17268,8021 17268,9593 Z"/>
 <path fill="rgb(255,211,32)" stroke="none" d="M 16674,9593 L 16823,9593 16823,8511 16674,8511 16674,9593 Z"/>
 <path fill="rgb(255,211,32)" stroke="none" d="M 16080,9593 L 16229,9593 16229,8849 16080,8849 16080,9593 Z"/>
 <path fill="rgb(255,211,32)" stroke="none" d="M 15486,9593 L 15635,9593 15635,9324 15486,9324 15486,9593 Z"/>
 <path fill="rgb(255,211,32)" stroke="none" d="M 14893,9593 L 15041,9593 15041,9180 14893,9180 14893,9593 Z"/>
 <path fill="rgb(255,211,32)" stroke="none" d="M 14299,9593 L 14447,9593 14447,9208 14299,9208 14299,9593 Z"/>
 <path fill="rgb(255,211,32)" stroke="none" d="M 13705,9593 L 13853,9593 13853,9414 13705,9414 13705,9593 Z"/>
 <path fill="rgb(255,211,32)" stroke="none" d="M 13111,9593 L 13259,9593 13259,9368 13111,9368 13111,9593 Z"/>
 <path fill="rgb(255,211,32)" stroke="none" d="M 12517,9593 L 12666,9593 12666,9118 12517,9118 12517,9593 Z"/>
 <path fill="rgb(255,211,32)" stroke="none" d="M 11923,9593 L 12072,9593 12072,9389 11923,9389 11923,9593 Z"/>
 <path fill="rgb(255,211,32)" stroke="none" d="M 11330,9593 L 11479,9593 11479,9271 11330,9271 11330,9593 Z"/>
 <path fill="rgb(255,211,32)" stroke="none" d="M 10737,9593 L 10885,9593 10885,9218 10737,9218 10737,9593 Z"/>
 <path fill="rgb(255,211,32)" stroke="none" d="M 10143,9593 L 10291,9593 10291,9174 10143,9174 10143,9593 Z"/>
 <path fill="rgb(255,211,32)" stroke="none" d="M 9549,9593 L 9697,9593 9697,9289 9549,9289 9549,9593 Z"/>
 <path fill="rgb(255,211,32)" stroke="none" d="M 8955,9593 L 9103,9593 9103,9239 8955,9239 8955,9593 Z"/>
 <path fill="rgb(255,211,32)" stroke="none" d="M 8361,9593 L 8510,9593 8510,9318 8361,9318 8361,9593 Z"/>
 <path fill="rgb(255,211,32)" stroke="none" d="M 7767,9593 L 7916,9593 7916,9146 7767,9146 7767,9593 Z"/>
 <path fill="rgb(255,211,32)" stroke="none" d="M 7173,9593 L 7322,9593 7322,9355 7173,9355 7173,9593 Z"/>
 <path fill="rgb(255,211,32)" stroke="none" d="M 6580,9593 L 6728,9593 6728,9177 6580,9177 6580,9593 Z"/>
 <path fill="rgb(255,211,32)" stroke="none" d="M 5986,9593 L 6134,9593 6134,9374 5986,9374 5986,9593 Z"/>
 <path fill="rgb(255,211,32)" stroke="none" d="M 5392,9593 L 5540,9593 5540,9211 5392,9211 5392,9593 Z"/>
 <path fill="rgb(255,211,32)" stroke="none" d="M 4798,9593 L 4946,9593 4946,9321 4798,9321 4798,9593 Z"/>
 <path fill="rgb(255,211,32)" stroke="none" d="M 4204,9593 L 4353,9593 4353,9196 4204,9196 4204,9593 Z"/>
 <path fill="rgb(255,211,32)" stroke="none" d="M 3610,9593 L 3759,9593 3759,9386 3610,9386 3610,9593 Z"/>
 <path fill="rgb(255,211,32)" stroke="none" d="M 3016,9593 L 3165,9593 3165,9561 3016,9561 3016,9593 Z"/>
 <path fill="rgb(255,211,32)" stroke="none" d="M 2423,9593 L 2571,9593 2571,9508 2423,9508 2423,9593 Z"/>
 <path fill="rgb(255,211,32)" stroke="none" d="M 1829,9593 L 1977,9593 1977,9568 1829,9568 1829,9593 Z"/>
 <text class="TextShape" transform="translate(1341,10479) rotate(-44.9) translate(-1341,-10479)"><tspan class="TextParagraph" font-family="Liberation Sans, sans-serif" font-size="353px" font-weight="400"><tspan class="TextPosition" x="1341" y="10479"><tspan fill="rgb(0,0,0)" stroke="none">v3.1</tspan></tspan></tspan></text>
 <text class="TextShape" transform="translate(1935,10479) rotate(-44.9) translate(-1935,-10479)"><tspan class="TextParagraph" font-family="Liberation Sans, sans-serif" font-size="353px" font-weight="400"><tspan class="TextPosition" x="1935" y="10479"><tspan fill="rgb(0,0,0)" stroke="none">v3.2</tspan></tspan></tspan></text>
 <text class="TextShape" transform="translate(2529,10479) rotate(-44.9) translate(-2529,-10479)"><tspan class="TextParagraph" font-family="Liberation Sans, sans-serif" font-size="353px" font-weight="400"><tspan class="TextPosition" x="2529" y="10479"><tspan fill="rgb(0,0,0)" stroke="none">v3.3</tspan></tspan></tspan></text>
 <text class="TextShape" transform="translate(3123,10479) rotate(-44.9) translate(-3123,-10479)"><tspan class="TextParagraph" font-family="Liberation Sans, sans-serif" font-size="353px" font-weight="400"><tspan class="TextPosition" x="3123" y="10479"><tspan fill="rgb(0,0,0)" stroke="none">v3.4</tspan></tspan></tspan></text>
 <text class="TextShape" transform="translate(3716,10479) rotate(-44.9) translate(-3716,-10479)"><tspan class="TextParagraph" font-family="Liberation Sans, sans-serif" font-size="353px" font-weight="400"><tspan class="TextPosition" x="3716" y="10479"><tspan fill="rgb(0,0,0)" stroke="none">v3.5</tspan></tspan></tspan></text>
 <text class="TextShape" transform="translate(4310,10479) rotate(-44.9) translate(-4310,-10479)"><tspan class="TextParagraph" font-family="Liberation Sans, sans-serif" font-size="353px" font-weight="400"><tspan class="TextPosition" x="4310" y="10479"><tspan fill="rgb(0,0,0)" stroke="none">v3.6</tspan></tspan></tspan></text>
 <text class="TextShape" transform="translate(4904,10479) rotate(-44.9) translate(-4904,-10479)"><tspan class="TextParagraph" font-family="Liberation Sans, sans-serif" font-size="353px" font-weight="400"><tspan class="TextPosition" x="4904" y="10479"><tspan fill="rgb(0,0,0)" stroke="none">v3.7</tspan></tspan></tspan></text>
 <text class="TextShape" transform="translate(5497,10479) rotate(-44.9) translate(-5497,-10479)"><tspan class="TextParagraph" font-family="Liberation Sans, sans-serif" font-size="353px" font-weight="400"><tspan class="TextPosition" x="5497" y="10479"><tspan fill="rgb(0,0,0)" stroke="none">v3.8</tspan></tspan></tspan></text>
 <text class="TextShape" transform="translate(6091,10479) rotate(-44.9) translate(-6091,-10479)"><tspan class="TextParagraph" font-family="Liberation Sans, sans-serif" font-size="353px" font-weight="400"><tspan class="TextPosition" x="6091" y="10479"><tspan fill="rgb(0,0,0)" stroke="none">v3.9</tspan></tspan></tspan></text>
 <text class="TextShape" transform="translate(6554,10611) rotate(-44.9) translate(-6554,-10611)"><tspan class="TextParagraph" font-family="Liberation Sans, sans-serif" font-size="353px" font-weight="400"><tspan class="TextPosition" x="6554" y="10611"><tspan fill="rgb(0,0,0)" stroke="none">v3.10</tspan></tspan></tspan></text>
 <text class="TextShape" transform="translate(7148,10611) rotate(-44.9) translate(-7148,-10611)"><tspan class="TextParagraph" font-family="Liberation Sans, sans-serif" font-size="353px" font-weight="400"><tspan class="TextPosition" x="7148" y="10611"><tspan fill="rgb(0,0,0)" stroke="none">v3.11</tspan></tspan></tspan></text>
 <text class="TextShape" transform="translate(7742,10611) rotate(-44.9) translate(-7742,-10611)"><tspan class="TextParagraph" font-family="Liberation Sans, sans-serif" font-size="353px" font-weight="400"><tspan class="TextPosition" x="7742" y="10611"><tspan fill="rgb(0,0,0)" stroke="none">v3.12</tspan></tspan></tspan></text>
 <text class="TextShape" transform="translate(8336,10611) rotate(-44.9) translate(-8336,-10611)"><tspan class="TextParagraph" font-family="Liberation Sans, sans-serif" font-size="353px" font-weight="400"><tspan class="TextPosition" x="8336" y="10611"><tspan fill="rgb(0,0,0)" stroke="none">v3.13</tspan></tspan></tspan></text>
 <text class="TextShape" transform="translate(8930,10611) rotate(-44.9) translate(-8930,-10611)"><tspan class="TextParagraph" font-family="Liberation Sans, sans-serif" font-size="353px" font-weight="400"><tspan class="TextPosition" x="8930" y="10611"><tspan fill="rgb(0,0,0)" stroke="none">v3.14</tspan></tspan></tspan></text>
 <text class="TextShape" transform="translate(9523,10611) rotate(-44.9) translate(-9523,-10611)"><tspan class="TextParagraph" font-family="Liberation Sans, sans-serif" font-size="353px" font-weight="400"><tspan class="TextPosition" x="9523" y="10611"><tspan fill="rgb(0,0,0)" stroke="none">v3.15</tspan></tspan></tspan></text>
 <text class="TextShape" transform="translate(10117,10611) rotate(-44.9) translate(-10117,-10611)"><tspan class="TextParagraph" font-family="Liberation Sans, sans-serif" font-size="353px" font-weight="400"><tspan class="TextPosition" x="10117" y="10611"><tspan fill="rgb(0,0,0)" stroke="none">v3.16</tspan></tspan></tspan></text>
 <text class="TextShape" transform="translate(10711,10611) rotate(-44.9) translate(-10711,-10611)"><tspan class="TextParagraph" font-family="Liberation Sans, sans-serif" font-size="353px" font-weight="400"><tspan class="TextPosition" x="10711" y="10611"><tspan fill="rgb(0,0,0)" stroke="none">v3.17</tspan></tspan></tspan></text>
 <text class="TextShape" transform="translate(11305,10611) rotate(-44.9) translate(-11305,-10611)"><tspan class="TextParagraph" font-family="Liberation Sans, sans-serif" font-size="353px" font-weight="400"><tspan class="TextPosition" x="11305" y="10611"><tspan fill="rgb(0,0,0)" stroke="none">v3.18</tspan></tspan></tspan></text>
 <text class="TextShape" transform="translate(11899,10611) rotate(-44.9) translate(-11899,-10611)"><tspan class="TextParagraph" font-family="Liberation Sans, sans-serif" font-size="353px" font-weight="400"><tspan class="TextPosition" x="11899" y="10611"><tspan fill="rgb(0,0,0)" stroke="none">v3.19</tspan></tspan></tspan></text>
 <text class="TextShape" transform="translate(12624,10479) rotate(-44.9) translate(-12624,-10479)"><tspan class="TextParagraph" font-family="Liberation Sans, sans-serif" font-size="353px" font-weight="400"><tspan class="TextPosition" x="12624" y="10479"><tspan fill="rgb(0,0,0)" stroke="none">v4.0</tspan></tspan></tspan></text>
 <text class="TextShape" transform="translate(13218,10479) rotate(-44.9) translate(-13218,-10479)"><tspan class="TextParagraph" font-family="Liberation Sans, sans-serif" font-size="353px" font-weight="400"><tspan class="TextPosition" x="13218" y="10479"><tspan fill="rgb(0,0,0)" stroke="none">v4.1</tspan></tspan></tspan></text>
 <text class="TextShape" transform="translate(13812,10479) rotate(-44.9) translate(-13812,-10479)"><tspan class="TextParagraph" font-family="Liberation Sans, sans-serif" font-size="353px" font-weight="400"><tspan class="TextPosition" x="13812" y="10479"><tspan fill="rgb(0,0,0)" stroke="none">v4.2</tspan></tspan></tspan></text>
 <text class="TextShape" transform="translate(14405,10479) rotate(-44.9) translate(-14405,-10479)"><tspan class="TextParagraph" font-family="Liberation Sans, sans-serif" font-size="353px" font-weight="400"><tspan class="TextPosition" x="14405" y="10479"><tspan fill="rgb(0,0,0)" stroke="none">v4.3</tspan></tspan></tspan></text>
 <text class="TextShape" transform="translate(14999,10479) rotate(-44.9) translate(-14999,-10479)"><tspan class="TextParagraph" font-family="Liberation Sans, sans-serif" font-size="353px" font-weight="400"><tspan class="TextPosition" x="14999" y="10479"><tspan fill="rgb(0,0,0)" stroke="none">v4.4</tspan></tspan></tspan></text>
 <text class="TextShape" transform="translate(15593,10479) rotate(-44.9) translate(-15593,-10479)"><tspan class="TextParagraph" font-family="Liberation Sans, sans-serif" font-size="353px" font-weight="400"><tspan class="TextPosition" x="15593" y="10479"><tspan fill="rgb(0,0,0)" stroke="none">v4.5</tspan></tspan></tspan></text>
 <text class="TextShape" transform="translate(16187,10479) rotate(-44.9) translate(-16187,-10479)"><tspan class="TextParagraph" font-family="Liberation Sans, sans-serif" font-size="353px" font-weight="400"><tspan class="TextPosition" x="16187" y="10479"><tspan fill="rgb(0,0,0)" stroke="none">v4.6</tspan></tspan></tspan></text>
 <text class="TextShape" transform="translate(16781,10479) rotate(-44.9) translate(-16781,-10479)"><tspan class="TextParagraph" font-family="Liberation Sans, sans-serif" font-size="353px" font-weight="400"><tspan class="TextPosition" x="16781" y="10479"><tspan fill="rgb(0,0,0)" stroke="none">v4.7</tspan></tspan></tspan></text>
 <text class="TextShape" transform="translate(17375,10479) rotate(-44.9) translate(-17375,-10479)"><tspan class="TextParagraph" font-family="Liberation Sans, sans-serif" font-size="353px" font-weight="400"><tspan class="TextPosition" x="17375" y="10479"><tspan fill="rgb(0,0,0)" stroke="none">v4.8</tspan></tspan></tspan></text>
 <text class="TextShape" transform="translate(17969,10479) rotate(-44.9) translate(-17969,-10479)"><tspan class="TextParagraph" font-family="Liberation Sans, sans-serif" font-size="353px" font-weight="400"><tspan class="TextPosition" x="17969" y="10479"><tspan fill="rgb(0,0,0)" stroke="none">v4.9</tspan></tspan></tspan></text>
 <text class="TextShape" transform="translate(18431,10611) rotate(-44.9) translate(-18431,-10611)"><tspan class="TextParagraph" font-family="Liberation Sans, sans-serif" font-size="353px" font-weight="400"><tspan class="TextPosition" x="18431" y="10611"><tspan fill="rgb(0,0,0)" stroke="none">v4.10</tspan></tspan></tspan></text>
 <text class="TextShape" transform="translate(19025,10611) rotate(-44.9) translate(-19025,-10611)"><tspan class="TextParagraph" font-family="Liberation Sans, sans-serif" font-size="353px" font-weight="400"><tspan class="TextPosition" x="19025" y="10611"><tspan fill="rgb(0,0,0)" stroke="none">v4.11</tspan></tspan></tspan></text>
 <text class="TextShape" transform="translate(19619,10611) rotate(-44.9) translate(-19619,-10611)"><tspan class="TextParagraph" font-family="Liberation Sans, sans-serif" font-size="353px" font-weight="400"><tspan class="TextPosition" x="19619" y="10611"><tspan fill="rgb(0,0,0)" stroke="none">v4.12</tspan></tspan></tspan></text>
 <text class="TextShape" transform="translate(20213,10611) rotate(-44.9) translate(-20213,-10611)"><tspan class="TextParagraph" font-family="Liberation Sans, sans-serif" font-size="353px" font-weight="400"><tspan class="TextPosition" x="20213" y="10611"><tspan fill="rgb(0,0,0)" stroke="none">v4.13</tspan></tspan></tspan></text>
 <text class="TextShape" transform="translate(20807,10611) rotate(-44.9) translate(-20807,-10611)"><tspan class="TextParagraph" font-family="Liberation Sans, sans-serif" font-size="353px" font-weight="400"><tspan class="TextPosition" x="20807" y="10611"><tspan fill="rgb(0,0,0)" stroke="none">v4.14</tspan></tspan></tspan></text>
 <text class="TextShape" transform="translate(21401,10611) rotate(-44.9) translate(-21401,-10611)"><tspan class="TextParagraph" font-family="Liberation Sans, sans-serif" font-size="353px" font-weight="400"><tspan class="TextPosition" x="21401" y="10611"><tspan fill="rgb(0,0,0)" stroke="none">v4.15</tspan></tspan></tspan></text>
 <text class="TextShape" transform="translate(21995,10611) rotate(-44.9) translate(-21995,-10611)"><tspan class="TextParagraph" font-family="Liberation Sans, sans-serif" font-size="353px" font-weight="400"><tspan class="TextPosition" x="21995" y="10611"><tspan fill="rgb(0,0,0)" stroke="none">v4.16</tspan></tspan></tspan></text>
 <text class="TextShape"><tspan class="TextParagraph" font-family="Liberation Sans, sans-serif" font-size="353px" font-weight="400"><tspan class="TextPosition" x="1023" y="9673"><tspan fill="rgb(0,0,0)" stroke="none">0</tspan></tspan></tspan></text>
 <text class="TextShape"><tspan class="TextParagraph" font-family="Liberation Sans, sans-serif" font-size="353px" font-weight="400"><tspan class="TextPosition" x="652" y="8110"><tspan fill="rgb(0,0,0)" stroke="none">500</tspan></tspan></tspan></text>
 <text class="TextShape"><tspan class="TextParagraph" font-family="Liberation Sans, sans-serif" font-size="353px" font-weight="400"><tspan class="TextPosition" x="467" y="6548"><tspan fill="rgb(0,0,0)" stroke="none">1000</tspan></tspan></tspan></text>
 <text class="TextShape"><tspan class="TextParagraph" font-family="Liberation Sans, sans-serif" font-size="353px" font-weight="400"><tspan class="TextPosition" x="467" y="4986"><tspan fill="rgb(0,0,0)" stroke="none">1500</tspan></tspan></tspan></text>
 <text class="TextShape"><tspan class="TextParagraph" font-family="Liberation Sans, sans-serif" font-size="353px" font-weight="400"><tspan class="TextPosition" x="467" y="3423"><tspan fill="rgb(0,0,0)" stroke="none">2000</tspan></tspan></tspan></text>
 <text class="TextShape"><tspan class="TextParagraph" font-family="Liberation Sans, sans-serif" font-size="353px" font-weight="400"><tspan class="TextPosition" x="467" y="1861"><tspan fill="rgb(0,0,0)" stroke="none">2500</tspan></tspan></tspan></text>
 <text class="TextShape"><tspan class="TextParagraph" font-family="Liberation Sans, sans-serif" font-size="353px" font-weight="400"><tspan class="TextPosition" x="467" y="299"><tspan fill="rgb(0,0,0)" stroke="none">3000</tspan></tspan></tspan></text>
 <path fill="rgb(255,66,14)" stroke="none" d="M 2020,2293 L 1915,2293 1915,2082 2126,2082 2126,2293 2020,2293 Z"/>
 <path fill="rgb(0,69,134)" stroke="none" d="M 2020,2698 L 1915,2698 1915,2487 2126,2487 2126,2698 2020,2698 Z"/>
 <path fill="rgb(255,211,32)" stroke="none" d="M 2020,3103 L 1915,3103 1915,2892 2126,2892 2126,3103 2020,3103 Z"/>
 <text class="TextShape"><tspan class="TextParagraph" font-family="Liberation Sans, sans-serif" font-size="353px" font-weight="400"><tspan class="TextPosition" x="2226" y="2266"><tspan fill="rgb(0,0,0)" stroke="none">GPU commits</tspan></tspan></tspan></text>
 <text class="TextShape"><tspan class="TextParagraph" font-family="Liberation Sans, sans-serif" font-size="353px" font-weight="400"><tspan class="TextPosition" x="2226" y="2671"><tspan fill="rgb(0,0,0)" stroke="none">GPU maintainer self-commits</tspan></tspan></tspan></text>
 <text class="TextShape"><tspan class="TextParagraph" font-family="Liberation Sans, sans-serif" font-size="353px" font-weight="400"><tspan class="TextPosition" x="2226" y="3076"><tspan fill="rgb(0,0,0)" stroke="none">reviewed GPU maintainer self-commits</tspan></tspan></tspan></text>
</svg>