<?xml version="1.0" encoding="UTF-8"?>
<!DOCTYPE svg PUBLIC "-//W3C//DTD SVG 1.1//EN" "http://www.w3.org/Graphics/SVG/1.1/DTD/svg11.dtd">
<svg width="233mm" height="110mm" viewBox="0 0 23300 11000" version="1.1" xmlns="http://www.w3.org/2000/svg" stroke-width="28.222" stroke-linejoin="round" xml:space="preserve">
 <path fill="rgb(255,255,255)" stroke="none" d="M 11638,10996 L 0,10996 0,0 23275,0 23275,10996 11638,10996 Z"/>
 <path fill="none" stroke="rgb(179,179,179)" stroke-linejoin="round" d="M 12199,9542 L 1589,9542 1589,219 22810,219 22810,9542 12199,9542 Z"/>
 <path fill="none" stroke="rgb(179,179,179)" stroke-linejoin="round" d="M 22810,9541 L 1589,9541"/>
 <path fill="none" stroke="rgb(179,179,179)" stroke-linejoin="round" d="M 22810,8608 L 1589,8608"/>
 <path fill="none" stroke="rgb(179,179,179)" stroke-linejoin="round" d="M 22810,7676 L 1589,7676"/>
 <path fill="none" stroke="rgb(179,179,179)" stroke-linejoin="round" d="M 22810,6743 L 1589,6743"/>
 <path fill="none" stroke="rgb(179,179,179)" stroke-linejoin="round" d="M 22810,5811 L 1589,5811"/>
 <path fill="none" stroke="rgb(179,179,179)" stroke-linejoin="round" d="M 22810,4880 L 1589,4880"/>
 <path fill="none" stroke="rgb(179,179,179)" stroke-linejoin="round" d="M 22810,3947 L 1589,3947"/>
 <path fill="none" stroke="rgb(179,179,179)" stroke-linejoin="round" d="M 22810,3015 L 1589,3015"/>
 <path fill="none" stroke="rgb(179,179,179)" stroke-linejoin="round" d="M 22810,2082 L 1589,2082"/>
 <path fill="none" stroke="rgb(179,179,179)" stroke-linejoin="round" d="M 22810,1150 L 1589,1150"/>
 <path fill="none" stroke="rgb(179,179,179)" stroke-linejoin="round" d="M 22810,218 L 1589,218"/>
 <path fill="none" stroke="rgb(179,179,179)" stroke-linejoin="round" d="M 1589,9691 L 1589,9541"/>
 <path fill="none" stroke="rgb(179,179,179)" stroke-linejoin="round" d="M 1589,9691 L 1589,9541"/>
 <path fill="none" stroke="rgb(179,179,179)" stroke-linejoin="round" d="M 2178,9691 L 2178,9541"/>
 <path fill="none" stroke="rgb(179,179,179)" stroke-linejoin="round" d="M 2178,9691 L 2178,9541"/>
 <path fill="none" stroke="rgb(179,179,179)" stroke-linejoin="round" d="M 2768,9691 L 2768,9541"/>
 <path fill="none" stroke="rgb(179,179,179)" stroke-linejoin="round" d="M 2768,9691 L 2768,9541"/>
 <path fill="none" stroke="rgb(179,179,179)" stroke-linejoin="round" d="M 3357,9691 L 3357,9541"/>
 <path fill="none" stroke="rgb(179,179,179)" stroke-linejoin="round" d="M 3357,9691 L 3357,9541"/>
 <path fill="none" stroke="rgb(179,179,179)" stroke-linejoin="round" d="M 3947,9691 L 3947,9541"/>
 <path fill="none" stroke="rgb(179,179,179)" stroke-linejoin="round" d="M 3947,9691 L 3947,9541"/>
 <path fill="none" stroke="rgb(179,179,179)" stroke-linejoin="round" d="M 4536,9691 L 4536,9541"/>
 <path fill="none" stroke="rgb(179,179,179)" stroke-linejoin="round" d="M 4536,9691 L 4536,9541"/>
 <path fill="none" stroke="rgb(179,179,179)" stroke-linejoin="round" d="M 5126,9691 L 5126,9541"/>
 <path fill="none" stroke="rgb(179,179,179)" stroke-linejoin="round" d="M 5126,9691 L 5126,9541"/>
 <path fill="none" stroke="rgb(179,179,179)" stroke-linejoin="round" d="M 5715,9691 L 5715,9541"/>
 <path fill="none" stroke="rgb(179,179,179)" stroke-linejoin="round" d="M 5715,9691 L 5715,9541"/>
 <path fill="none" stroke="rgb(179,179,179)" stroke-linejoin="round" d="M 6305,9691 L 6305,9541"/>
 <path fill="none" stroke="rgb(179,179,179)" stroke-linejoin="round" d="M 6305,9691 L 6305,9541"/>
 <path fill="none" stroke="rgb(179,179,179)" stroke-linejoin="round" d="M 6894,9691 L 6894,9541"/>
 <path fill="none" stroke="rgb(179,179,179)" stroke-linejoin="round" d="M 6894,9691 L 6894,9541"/>
 <path fill="none" stroke="rgb(179,179,179)" stroke-linejoin="round" d="M 7484,9691 L 7484,9541"/>
 <path fill="none" stroke="rgb(179,179,179)" stroke-linejoin="round" d="M 7484,9691 L 7484,9541"/>
 <path fill="none" stroke="rgb(179,179,179)" stroke-linejoin="round" d="M 8073,9691 L 8073,9541"/>
 <path fill="none" stroke="rgb(179,179,179)" stroke-linejoin="round" d="M 8073,9691 L 8073,9541"/>
 <path fill="none" stroke="rgb(179,179,179)" stroke-linejoin="round" d="M 8663,9691 L 8663,9541"/>
 <path fill="none" stroke="rgb(179,179,179)" stroke-linejoin="round" d="M 8663,9691 L 8663,9541"/>
 <path fill="none" stroke="rgb(179,179,179)" stroke-linejoin="round" d="M 9252,9691 L 9252,9541"/>
 <path fill="none" stroke="rgb(179,179,179)" stroke-linejoin="round" d="M 9252,9691 L 9252,9541"/>
 <path fill="none" stroke="rgb(179,179,179)" stroke-linejoin="round" d="M 9841,9691 L 9841,9541"/>
 <path fill="none" stroke="rgb(179,179,179)" stroke-linejoin="round" d="M 9841,9691 L 9841,9541"/>
 <path fill="none" stroke="rgb(179,179,179)" stroke-linejoin="round" d="M 10431,9691 L 10431,9541"/>
 <path fill="none" stroke="rgb(179,179,179)" stroke-linejoin="round" d="M 10431,9691 L 10431,9541"/>
 <path fill="none" stroke="rgb(179,179,179)" stroke-linejoin="round" d="M 11021,9691 L 11021,9541"/>
 <path fill="none" stroke="rgb(179,179,179)" stroke-linejoin="round" d="M 11021,9691 L 11021,9541"/>
 <path fill="none" stroke="rgb(179,179,179)" stroke-linejoin="round" d="M 11610,9691 L 11610,9541"/>
 <path fill="none" stroke="rgb(179,179,179)" stroke-linejoin="round" d="M 11610,9691 L 11610,9541"/>
 <path fill="none" stroke="rgb(179,179,179)" stroke-linejoin="round" d="M 12199,9691 L 12199,9541"/>
 <path fill="none" stroke="rgb(179,179,179)" stroke-linejoin="round" d="M 12199,9691 L 12199,9541"/>
 <path fill="none" stroke="rgb(179,179,179)" stroke-linejoin="round" d="M 12788,9691 L 12788,9541"/>
 <path fill="none" stroke="rgb(179,179,179)" stroke-linejoin="round" d="M 12788,9691 L 12788,9541"/>
 <path fill="none" stroke="rgb(179,179,179)" stroke-linejoin="round" d="M 13378,9691 L 13378,9541"/>
 <path fill="none" stroke="rgb(179,179,179)" stroke-linejoin="round" d="M 13378,9691 L 13378,9541"/>
 <path fill="none" stroke="rgb(179,179,179)" stroke-linejoin="round" d="M 13967,9691 L 13967,9541"/>
 <path fill="none" stroke="rgb(179,179,179)" stroke-linejoin="round" d="M 13967,9691 L 13967,9541"/>
 <path fill="none" stroke="rgb(179,179,179)" stroke-linejoin="round" d="M 14556,9691 L 14556,9541"/>
 <path fill="none" stroke="rgb(179,179,179)" stroke-linejoin="round" d="M 14556,9691 L 14556,9541"/>
 <path fill="none" stroke="rgb(179,179,179)" stroke-linejoin="round" d="M 15146,9691 L 15146,9541"/>
 <path fill="none" stroke="rgb(179,179,179)" stroke-linejoin="round" d="M 15146,9691 L 15146,9541"/>
 <path fill="none" stroke="rgb(179,179,179)" stroke-linejoin="round" d="M 15736,9691 L 15736,9541"/>
 <path fill="none" stroke="rgb(179,179,179)" stroke-linejoin="round" d="M 15736,9691 L 15736,9541"/>
 <path fill="none" stroke="rgb(179,179,179)" stroke-linejoin="round" d="M 16325,9691 L 16325,9541"/>
 <path fill="none" stroke="rgb(179,179,179)" stroke-linejoin="round" d="M 16325,9691 L 16325,9541"/>
 <path fill="none" stroke="rgb(179,179,179)" stroke-linejoin="round" d="M 16915,9691 L 16915,9541"/>
 <path fill="none" stroke="rgb(179,179,179)" stroke-linejoin="round" d="M 16915,9691 L 16915,9541"/>
 <path fill="none" stroke="rgb(179,179,179)" stroke-linejoin="round" d="M 17504,9691 L 17504,9541"/>
 <path fill="none" stroke="rgb(179,179,179)" stroke-linejoin="round" d="M 17504,9691 L 17504,9541"/>
 <path fill="none" stroke="rgb(179,179,179)" stroke-linejoin="round" d="M 18093,9691 L 18093,9541"/>
 <path fill="none" stroke="rgb(179,179,179)" stroke-linejoin="round" d="M 18093,9691 L 18093,9541"/>
 <path fill="none" stroke="rgb(179,179,179)" stroke-linejoin="round" d="M 18683,9691 L 18683,9541"/>
 <path fill="none" stroke="rgb(179,179,179)" stroke-linejoin="round" d="M 18683,9691 L 18683,9541"/>
 <path fill="none" stroke="rgb(179,179,179)" stroke-linejoin="round" d="M 19273,9691 L 19273,9541"/>
 <path fill="none" stroke="rgb(179,179,179)" stroke-linejoin="round" d="M 19273,9691 L 19273,9541"/>
 <path fill="none" stroke="rgb(179,179,179)" stroke-linejoin="round" d="M 19862,9691 L 19862,9541"/>
 <path fill="none" stroke="rgb(179,179,179)" stroke-linejoin="round" d="M 19862,9691 L 19862,9541"/>
 <path fill="none" stroke="rgb(179,179,179)" stroke-linejoin="round" d="M 20452,9691 L 20452,9541"/>
 <path fill="none" stroke="rgb(179,179,179)" stroke-linejoin="round" d="M 20452,9691 L 20452,9541"/>
 <path fill="none" stroke="rgb(179,179,179)" stroke-linejoin="round" d="M 21041,9691 L 21041,9541"/>
 <path fill="none" stroke="rgb(179,179,179)" stroke-linejoin="round" d="M 21041,9691 L 21041,9541"/>
 <path fill="none" stroke="rgb(179,179,179)" stroke-linejoin="round" d="M 21631,9691 L 21631,9541"/>
 <path fill="none" stroke="rgb(179,179,179)" stroke-linejoin="round" d="M 21631,9691 L 21631,9541"/>
 <path fill="none" stroke="rgb(179,179,179)" stroke-linejoin="round" d="M 22220,9691 L 22220,9541"/>
 <path fill="none" stroke="rgb(179,179,179)" stroke-linejoin="round" d="M 22220,9691 L 22220,9541"/>
 <path fill="none" stroke="rgb(179,179,179)" stroke-linejoin="round" d="M 22810,9691 L 22810,9541"/>
 <path fill="none" stroke="rgb(179,179,179)" stroke-linejoin="round" d="M 22810,9691 L 22810,9541"/>
 <path fill="none" stroke="rgb(179,179,179)" stroke-linejoin="round" d="M 1589,9541 L 22810,9541"/>
 <path fill="none" stroke="rgb(179,179,179)" stroke-linejoin="round" d="M 1439,9541 L 1589,9541"/>
 <path fill="none" stroke="rgb(179,179,179)" stroke-linejoin="round" d="M 1439,9541 L 1589,9541"/>
 <path fill="none" stroke="rgb(179,179,179)" stroke-linejoin="round" d="M 1439,8608 L 1589,8608"/>
 <path fill="none" stroke="rgb(179,179,179)" stroke-linejoin="round" d="M 1439,8608 L 1589,8608"/>
 <path fill="none" stroke="rgb(179,179,179)" stroke-linejoin="round" d="M 1439,7676 L 1589,7676"/>
 <path fill="none" stroke="rgb(179,179,179)" stroke-linejoin="round" d="M 1439,7676 L 1589,7676"/>
 <path fill="none" stroke="rgb(179,179,179)" stroke-linejoin="round" d="M 1439,6743 L 1589,6743"/>
 <path fill="none" stroke="rgb(179,179,179)" stroke-linejoin="round" d="M 1439,6743 L 1589,6743"/>
 <path fill="none" stroke="rgb(179,179,179)" stroke-linejoin="round" d="M 1439,5811 L 1589,5811"/>
 <path fill="none" stroke="rgb(179,179,179)" stroke-linejoin="round" d="M 1439,5811 L 1589,5811"/>
 <path fill="none" stroke="rgb(179,179,179)" stroke-linejoin="round" d="M 1439,4880 L 1589,4880"/>
 <path fill="none" stroke="rgb(179,179,179)" stroke-linejoin="round" d="M 1439,4880 L 1589,4880"/>
 <path fill="none" stroke="rgb(179,179,179)" stroke-linejoin="round" d="M 1439,3947 L 1589,3947"/>
 <path fill="none" stroke="rgb(179,179,179)" stroke-linejoin="round" d="M 1439,3947 L 1589,3947"/>
 <path fill="none" stroke="rgb(179,179,179)" stroke-linejoin="round" d="M 1439,3015 L 1589,3015"/>
 <path fill="none" stroke="rgb(179,179,179)" stroke-linejoin="round" d="M 1439,3015 L 1589,3015"/>
 <path fill="none" stroke="rgb(179,179,179)" stroke-linejoin="round" d="M 1439,2082 L 1589,2082"/>
 <path fill="none" stroke="rgb(179,179,179)" stroke-linejoin="round" d="M 1439,2082 L 1589,2082"/>
 <path fill="none" stroke="rgb(179,179,179)" stroke-linejoin="round" d="M 1439,1150 L 1589,1150"/>
 <path fill="none" stroke="rgb(179,179,179)" stroke-linejoin="round" d="M 1439,1150 L 1589,1150"/>
 <path fill="none" stroke="rgb(179,179,179)" stroke-linejoin="round" d="M 1439,218 L 1589,218"/>
 <path fill="none" stroke="rgb(179,179,179)" stroke-linejoin="round" d="M 1439,218 L 1589,218"/>
 <path fill="none" stroke="rgb(179,179,179)" stroke-linejoin="round" d="M 1589,9541 L 1589,218"/>
 <path fill="rgb(0,69,134)" stroke="none" d="M 22318,9541 L 22515,9541 22515,6139 22318,6139 22318,9541 Z"/>
 <path fill="rgb(0,69,134)" stroke="none" d="M 21729,9541 L 21925,9541 21925,7195 21729,7195 21729,9541 Z"/>
 <path fill="rgb(0,69,134)" stroke="none" d="M 21139,9541 L 21336,9541 21336,6174 21139,6174 21139,9541 Z"/>
 <path fill="rgb(0,69,134)" stroke="none" d="M 20550,9541 L 20746,9541 20746,5816 20550,5816 20550,9541 Z"/>
 <path fill="rgb(0,69,134)" stroke="none" d="M 19960,9541 L 20157,9541 20157,5287 19960,5287 19960,9541 Z"/>
 <path fill="rgb(0,69,134)" stroke="none" d="M 19371,9541 L 19567,9541 19567,5794 19371,5794 19371,9541 Z"/>
 <path fill="rgb(0,69,134)" stroke="none" d="M 18781,9541 L 18978,9541 18978,4938 18781,4938 18781,9541 Z"/>
 <path fill="rgb(0,69,134)" stroke="none" d="M 18192,9541 L 18388,9541 18388,5412 18192,5412 18192,9541 Z"/>
 <path fill="rgb(0,69,134)" stroke="none" d="M 17602,9541 L 17799,9541 17799,4641 17602,4641 17602,9541 Z"/>
 <path fill="rgb(0,69,134)" stroke="none" d="M 17013,9541 L 17209,9541 17209,4600 17013,4600 17013,9541 Z"/>
 <path fill="rgb(0,69,134)" stroke="none" d="M 16423,9541 L 16620,9541 16620,5486 16423,5486 16423,9541 Z"/>
 <path fill="rgb(0,69,134)" stroke="none" d="M 15834,9541 L 16030,9541 16030,6047 15834,6047 15834,9541 Z"/>
 <path fill="rgb(0,69,134)" stroke="none" d="M 15244,9541 L 15441,9541 15441,7664 15244,7664 15244,9541 Z"/>
 <path fill="rgb(0,69,134)" stroke="none" d="M 14655,9541 L 14851,9541 14851,6320 14655,6320 14655,9541 Z"/>
 <path fill="rgb(0,69,134)" stroke="none" d="M 14065,9541 L 14262,9541 14262,7177 14065,7177 14065,9541 Z"/>
 <path fill="rgb(0,69,134)" stroke="none" d="M 13476,9541 L 13672,9541 13672,6673 13476,6673 13476,9541 Z"/>
 <path fill="rgb(0,69,134)" stroke="none" d="M 12886,9541 L 13083,9541 13083,6358 12886,6358 12886,9541 Z"/>
 <path fill="rgb(0,69,134)" stroke="none" d="M 12297,9541 L 12493,9541 12493,6118 12297,6118 12297,9541 Z"/>
 <path fill="rgb(0,69,134)" stroke="none" d="M 11707,9541 L 11904,9541 11904,6876 11707,6876 11707,9541 Z"/>
 <path fill="rgb(0,69,134)" stroke="none" d="M 11119,9541 L 11315,9541 11315,6606 11119,6606 11119,9541 Z"/>
 <path fill="rgb(0,69,134)" stroke="none" d="M 10529,9541 L 10726,9541 10726,6476 10529,6476 10529,9541 Z"/>
 <path fill="rgb(0,69,134)" stroke="none" d="M 9940,9541 L 10136,9541 10136,6679 9940,6679 9940,9541 Z"/>
 <path fill="rgb(0,69,134)" stroke="none" d="M 9350,9541 L 9547,9541 9547,5488 9350,5488 9350,9541 Z"/>
 <path fill="rgb(0,69,134)" stroke="none" d="M 8761,9541 L 8957,9541 8957,6449 8761,6449 8761,9541 Z"/>
 <path fill="rgb(0,69,134)" stroke="none" d="M 8171,9541 L 8368,9541 8368,5949 8171,5949 8171,9541 Z"/>
 <path fill="rgb(0,69,134)" stroke="none" d="M 7582,9541 L 7778,9541 7778,4884 7582,4884 7582,9541 Z"/>
 <path fill="rgb(0,69,134)" stroke="none" d="M 6992,9541 L 7189,9541 7189,5793 6992,5793 6992,9541 Z"/>
 <path fill="rgb(0,69,134)" stroke="none" d="M 6403,9541 L 6599,9541 6599,5228 6403,5228 6403,9541 Z"/>
 <path fill="rgb(0,69,134)" stroke="none" d="M 5813,9541 L 6010,9541 6010,6483 5813,6483 5813,9541 Z"/>
 <path fill="rgb(0,69,134)" stroke="none" d="M 5224,9541 L 5420,9541 5420,4975 5224,4975 5224,9541 Z"/>
 <path fill="rgb(0,69,134)" stroke="none" d="M 4634,9541 L 4831,9541 4831,6064 4634,6064 4634,9541 Z"/>
 <path fill="rgb(0,69,134)" stroke="none" d="M 4045,9541 L 4241,9541 4241,6522 4045,6522 4045,9541 Z"/>
 <path fill="rgb(0,69,134)" stroke="none" d="M 3455,9541 L 3652,9541 3652,6542 3455,6542 3455,9541 Z"/>
 <path fill="rgb(0,69,134)" stroke="none" d="M 2866,9541 L 3062,9541 3062,6619 2866,6619 2866,9541 Z"/>
 <path fill="rgb(0,69,134)" stroke="none" d="M 2276,9541 L 2473,9541 2473,6000 2276,6000 2276,9541 Z"/>
 <path fill="rgb(0,69,134)" stroke="none" d="M 1687,9541 L 1883,9541 1883,6185 1687,6185 1687,9541 Z"/>
 <path fill="rgb(255,211,32)" stroke="none" d="M 22515,9541 L 22711,9541 22711,1827 22515,1827 22515,9541 Z"/>
 <path fill="rgb(255,211,32)" stroke="none" d="M 21925,9541 L 22122,9541 22122,3101 21925,3101 21925,9541 Z"/>
 <path fill="rgb(255,211,32)" stroke="none" d="M 21336,9541 L 21532,9541 21532,1575 21336,1575 21336,9541 Z"/>
 <path fill="rgb(255,211,32)" stroke="none" d="M 20746,9541 L 20943,9541 20943,1931 20746,1931 20746,9541 Z"/>
 <path fill="rgb(255,211,32)" stroke="none" d="M 20157,9541 L 20353,9541 20353,1507 20157,1507 20157,9541 Z"/>
 <path fill="rgb(255,211,32)" stroke="none" d="M 19567,9541 L 19764,9541 19764,1968 19567,1968 19567,9541 Z"/>
 <path fill="rgb(255,211,32)" stroke="none" d="M 18978,9541 L 19174,9541 19174,2982 18978,2982 18978,9541 Z"/>
 <path fill="rgb(255,211,32)" stroke="none" d="M 18388,9541 L 18585,9541 18585,2048 18388,2048 18388,9541 Z"/>
 <path fill="rgb(255,211,32)" stroke="none" d="M 17799,9541 L 17995,9541 17995,2984 17799,2984 17799,9541 Z"/>
 <path fill="rgb(255,211,32)" stroke="none" d="M 17209,9541 L 17406,9541 17406,2744 17209,2744 17209,9541 Z"/>
 <path fill="rgb(255,211,32)" stroke="none" d="M 16620,9541 L 16816,9541 16816,3361 16620,3361 16620,9541 Z"/>
 <path fill="rgb(255,211,32)" stroke="none" d="M 16030,9541 L 16227,9541 16227,3034 16030,3034 16030,9541 Z"/>
 <path fill="rgb(255,211,32)" stroke="none" d="M 15441,9541 L 15637,9541 15637,5207 15441,5207 15441,9541 Z"/>
 <path fill="rgb(255,211,32)" stroke="none" d="M 14851,9541 L 15048,9541 15048,7192 14851,7192 14851,9541 Z"/>
 <path fill="rgb(255,211,32)" stroke="none" d="M 14262,9541 L 14458,9541 14458,5044 14262,5044 14262,9541 Z"/>
 <path fill="rgb(255,211,32)" stroke="none" d="M 13672,9541 L 13869,9541 13869,7344 13672,7344 13672,9541 Z"/>
 <path fill="rgb(255,211,32)" stroke="none" d="M 13083,9541 L 13279,9541 13279,7185 13083,7185 13083,9541 Z"/>
 <path fill="rgb(255,211,32)" stroke="none" d="M 12493,9541 L 12690,9541 12690,5953 12493,5953 12493,9541 Z"/>
 <path fill="rgb(255,211,32)" stroke="none" d="M 11904,9541 L 12100,9541 12100,6570 11904,6570 11904,9541 Z"/>
 <path fill="rgb(255,211,32)" stroke="none" d="M 11315,9541 L 11512,9541 11512,4946 11315,4946 11315,9541 Z"/>
 <path fill="rgb(255,211,32)" stroke="none" d="M 10726,9541 L 10922,9541 10922,5615 10726,5615 10726,9541 Z"/>
 <path fill="rgb(255,211,32)" stroke="none" d="M 10136,9541 L 10333,9541 10333,5404 10136,5404 10136,9541 Z"/>
 <path fill="rgb(255,211,32)" stroke="none" d="M 9547,9541 L 9743,9541 9743,6651 9547,6651 9547,9541 Z"/>
 <path fill="rgb(255,211,32)" stroke="none" d="M 8957,9541 L 9154,9541 9154,6131 8957,6131 8957,9541 Z"/>
 <path fill="rgb(255,211,32)" stroke="none" d="M 8368,9541 L 8564,9541 8564,7031 8368,7031 8368,9541 Z"/>
 <path fill="rgb(255,211,32)" stroke="none" d="M 7778,9541 L 7975,9541 7975,6751 7778,6751 7778,9541 Z"/>
 <path fill="rgb(255,211,32)" stroke="none" d="M 7189,9541 L 7385,9541 7385,6706 7189,6706 7189,9541 Z"/>
 <path fill="rgb(255,211,32)" stroke="none" d="M 6599,9541 L 6796,9541 6796,4982 6599,4982 6599,9541 Z"/>
 <path fill="rgb(255,211,32)" stroke="none" d="M 6010,9541 L 6206,9541 6206,6866 6010,6866 6010,9541 Z"/>
 <path fill="rgb(255,211,32)" stroke="none" d="M 5420,9541 L 5617,9541 5617,5895 5420,5895 5420,9541 Z"/>
 <path fill="rgb(255,211,32)" stroke="none" d="M 4831,9541 L 5027,9541 5027,4274 4831,4274 4831,9541 Z"/>
 <path fill="rgb(255,211,32)" stroke="none" d="M 4241,9541 L 4438,9541 4438,4302 4241,4302 4241,9541 Z"/>
 <path fill="rgb(255,211,32)" stroke="none" d="M 3652,9541 L 3848,9541 3848,5570 3652,5570 3652,9541 Z"/>
 <path fill="rgb(255,211,32)" stroke="none" d="M 3062,9541 L 3259,9541 3259,8855 3062,8855 3062,9541 Z"/>
 <path fill="rgb(255,211,32)" stroke="none" d="M 2473,9541 L 2669,9541 2669,8077 2473,8077 2473,9541 Z"/>
 <path fill="rgb(255,211,32)" stroke="none" d="M 1883,9541 L 2080,9541 2080,8673 1883,8673 1883,9541 Z"/>
 <text class="TextShape" transform="translate(1470,10427) rotate(-44.9) translate(-1470,-10427)"><tspan class="TextParagraph" font-family="Liberation Sans, sans-serif" font-size="353px" font-weight="400"><tspan class="TextPosition" x="1470" y="10427"><tspan fill="rgb(0,0,0)" stroke="none">v3.1</tspan></tspan></tspan></text>
 <text class="TextShape" transform="translate(2060,10427) rotate(-44.9) translate(-2060,-10427)"><tspan class="TextParagraph" font-family="Liberation Sans, sans-serif" font-size="353px" font-weight="400"><tspan class="TextPosition" x="2060" y="10427"><tspan fill="rgb(0,0,0)" stroke="none">v3.2</tspan></tspan></tspan></text>
 <text class="TextShape" transform="translate(2649,10427) rotate(-44.9) translate(-2649,-10427)"><tspan class="TextParagraph" font-family="Liberation Sans, sans-serif" font-size="353px" font-weight="400"><tspan class="TextPosition" x="2649" y="10427"><tspan fill="rgb(0,0,0)" stroke="none">v3.3</tspan></tspan></tspan></text>
 <text class="TextShape" transform="translate(3239,10427) rotate(-44.9) translate(-3239,-10427)"><tspan class="TextParagraph" font-family="Liberation Sans, sans-serif" font-size="353px" font-weight="400"><tspan class="TextPosition" x="3239" y="10427"><tspan fill="rgb(0,0,0)" stroke="none">v3.4</tspan></tspan></tspan></text>
 <text class="TextShape" transform="translate(3827,10427) rotate(-44.9) translate(-3827,-10427)"><tspan class="TextParagraph" font-family="Liberation Sans, sans-serif" font-size="353px" font-weight="400"><tspan class="TextPosition" x="3827" y="10427"><tspan fill="rgb(0,0,0)" stroke="none">v3.5</tspan></tspan></tspan></text>
 <text class="TextShape" transform="translate(4417,10427) rotate(-44.9) translate(-4417,-10427)"><tspan class="TextParagraph" font-family="Liberation Sans, sans-serif" font-size="353px" font-weight="400"><tspan class="TextPosition" x="4417" y="10427"><tspan fill="rgb(0,0,0)" stroke="none">v3.6</tspan></tspan></tspan></text>
 <text class="TextShape" transform="translate(5006,10427) rotate(-44.9) translate(-5006,-10427)"><tspan class="TextParagraph" font-family="Liberation Sans, sans-serif" font-size="353px" font-weight="400"><tspan class="TextPosition" x="5006" y="10427"><tspan fill="rgb(0,0,0)" stroke="none">v3.7</tspan></tspan></tspan></text>
 <text class="TextShape" transform="translate(5596,10427) rotate(-44.9) translate(-5596,-10427)"><tspan class="TextParagraph" font-family="Liberation Sans, sans-serif" font-size="353px" font-weight="400"><tspan class="TextPosition" x="5596" y="10427"><tspan fill="rgb(0,0,0)" stroke="none">v3.8</tspan></tspan></tspan></text>
 <text class="TextShape" transform="translate(6185,10427) rotate(-44.9) translate(-6185,-10427)"><tspan class="TextParagraph" font-family="Liberation Sans, sans-serif" font-size="353px" font-weight="400"><tspan class="TextPosition" x="6185" y="10427"><tspan fill="rgb(0,0,0)" stroke="none">v3.9</tspan></tspan></tspan></text>
 <text class="TextShape" transform="translate(6644,10559) rotate(-44.9) translate(-6644,-10559)"><tspan class="TextParagraph" font-family="Liberation Sans, sans-serif" font-size="353px" font-weight="400"><tspan class="TextPosition" x="6644" y="10559"><tspan fill="rgb(0,0,0)" stroke="none">v3.10</tspan></tspan></tspan></text>
 <text class="TextShape" transform="translate(7233,10559) rotate(-44.9) translate(-7233,-10559)"><tspan class="TextParagraph" font-family="Liberation Sans, sans-serif" font-size="353px" font-weight="400"><tspan class="TextPosition" x="7233" y="10559"><tspan fill="rgb(0,0,0)" stroke="none">v3.11</tspan></tspan></tspan></text>
 <text class="TextShape" transform="translate(7823,10559) rotate(-44.9) translate(-7823,-10559)"><tspan class="TextParagraph" font-family="Liberation Sans, sans-serif" font-size="353px" font-weight="400"><tspan class="TextPosition" x="7823" y="10559"><tspan fill="rgb(0,0,0)" stroke="none">v3.12</tspan></tspan></tspan></text>
 <text class="TextShape" transform="translate(8412,10559) rotate(-44.9) translate(-8412,-10559)"><tspan class="TextParagraph" font-family="Liberation Sans, sans-serif" font-size="353px" font-weight="400"><tspan class="TextPosition" x="8412" y="10559"><tspan fill="rgb(0,0,0)" stroke="none">v3.13</tspan></tspan></tspan></text>
 <text class="TextShape" transform="translate(9002,10559) rotate(-44.9) translate(-9002,-10559)"><tspan class="TextParagraph" font-family="Liberation Sans, sans-serif" font-size="353px" font-weight="400"><tspan class="TextPosition" x="9002" y="10559"><tspan fill="rgb(0,0,0)" stroke="none">v3.14</tspan></tspan></tspan></text>
 <text class="TextShape" transform="translate(9591,10559) rotate(-44.9) translate(-9591,-10559)"><tspan class="TextParagraph" font-family="Liberation Sans, sans-serif" font-size="353px" font-weight="400"><tspan class="TextPosition" x="9591" y="10559"><tspan fill="rgb(0,0,0)" stroke="none">v3.15</tspan></tspan></tspan></text>
 <text class="TextShape" transform="translate(10181,10559) rotate(-44.9) translate(-10181,-10559)"><tspan class="TextParagraph" font-family="Liberation Sans, sans-serif" font-size="353px" font-weight="400"><tspan class="TextPosition" x="10181" y="10559"><tspan fill="rgb(0,0,0)" stroke="none">v3.16</tspan></tspan></tspan></text>
 <text class="TextShape" transform="translate(10770,10559) rotate(-44.9) translate(-10770,-10559)"><tspan class="TextParagraph" font-family="Liberation Sans, sans-serif" font-size="353px" font-weight="400"><tspan class="TextPosition" x="10770" y="10559"><tspan fill="rgb(0,0,0)" stroke="none">v3.17</tspan></tspan></tspan></text>
 <text class="TextShape" transform="translate(11360,10559) rotate(-44.9) translate(-11360,-10559)"><tspan class="TextParagraph" font-family="Liberation Sans, sans-serif" font-size="353px" font-weight="400"><tspan class="TextPosition" x="11360" y="10559"><tspan fill="rgb(0,0,0)" stroke="none">v3.18</tspan></tspan></tspan></text>
 <text class="TextShape" transform="translate(11949,10559) rotate(-44.9) translate(-11949,-10559)"><tspan class="TextParagraph" font-family="Liberation Sans, sans-serif" font-size="353px" font-weight="400"><tspan class="TextPosition" x="11949" y="10559"><tspan fill="rgb(0,0,0)" stroke="none">v3.19</tspan></tspan></tspan></text>
 <text class="TextShape" transform="translate(12670,10427) rotate(-44.9) translate(-12670,-10427)"><tspan class="TextParagraph" font-family="Liberation Sans, sans-serif" font-size="353px" font-weight="400"><tspan class="TextPosition" x="12670" y="10427"><tspan fill="rgb(0,0,0)" stroke="none">v4.0</tspan></tspan></tspan></text>
 <text class="TextShape" transform="translate(13259,10427) rotate(-44.9) translate(-13259,-10427)"><tspan class="TextParagraph" font-family="Liberation Sans, sans-serif" font-size="353px" font-weight="400"><tspan class="TextPosition" x="13259" y="10427"><tspan fill="rgb(0,0,0)" stroke="none">v4.1</tspan></tspan></tspan></text>
 <text class="TextShape" transform="translate(13849,10427) rotate(-44.9) translate(-13849,-10427)"><tspan class="TextParagraph" font-family="Liberation Sans, sans-serif" font-size="353px" font-weight="400"><tspan class="TextPosition" x="13849" y="10427"><tspan fill="rgb(0,0,0)" stroke="none">v4.2</tspan></tspan></tspan></text>
 <text class="TextShape" transform="translate(14438,10427) rotate(-44.9) translate(-14438,-10427)"><tspan class="TextParagraph" font-family="Liberation Sans, sans-serif" font-size="353px" font-weight="400"><tspan class="TextPosition" x="14438" y="10427"><tspan fill="rgb(0,0,0)" stroke="none">v4.3</tspan></tspan></tspan></text>
 <text class="TextShape" transform="translate(15028,10427) rotate(-44.9) translate(-15028,-10427)"><tspan class="TextParagraph" font-family="Liberation Sans, sans-serif" font-size="353px" font-weight="400"><tspan class="TextPosition" x="15028" y="10427"><tspan fill="rgb(0,0,0)" stroke="none">v4.4</tspan></tspan></tspan></text>
 <text class="TextShape" transform="translate(15617,10427) rotate(-44.9) translate(-15617,-10427)"><tspan class="TextParagraph" font-family="Liberation Sans, sans-serif" font-size="353px" font-weight="400"><tspan class="TextPosition" x="15617" y="10427"><tspan fill="rgb(0,0,0)" stroke="none">v4.5</tspan></tspan></tspan></text>
 <text class="TextShape" transform="translate(16207,10427) rotate(-44.9) translate(-16207,-10427)"><tspan class="TextParagraph" font-family="Liberation Sans, sans-serif" font-size="353px" font-weight="400"><tspan class="TextPosition" x="16207" y="10427"><tspan fill="rgb(0,0,0)" stroke="none">v4.6</tspan></tspan></tspan></text>
 <text class="TextShape" transform="translate(16796,10427) rotate(-44.9) translate(-16796,-10427)"><tspan class="TextParagraph" font-family="Liberation Sans, sans-serif" font-size="353px" font-weight="400"><tspan class="TextPosition" x="16796" y="10427"><tspan fill="rgb(0,0,0)" stroke="none">v4.7</tspan></tspan></tspan></text>
 <text class="TextShape" transform="translate(17386,10427) rotate(-44.9) translate(-17386,-10427)"><tspan class="TextParagraph" font-family="Liberation Sans, sans-serif" font-size="353px" font-weight="400"><tspan class="TextPosition" x="17386" y="10427"><tspan fill="rgb(0,0,0)" stroke="none">v4.8</tspan></tspan></tspan></text>
 <text class="TextShape" transform="translate(17975,10427) rotate(-44.9) translate(-17975,-10427)"><tspan class="TextParagraph" font-family="Liberation Sans, sans-serif" font-size="353px" font-weight="400"><tspan class="TextPosition" x="17975" y="10427"><tspan fill="rgb(0,0,0)" stroke="none">v4.9</tspan></tspan></tspan></text>
 <text class="TextShape" transform="translate(18434,10559) rotate(-44.9) translate(-18434,-10559)"><tspan class="TextParagraph" font-family="Liberation Sans, sans-serif" font-size="353px" font-weight="400"><tspan class="TextPosition" x="18434" y="10559"><tspan fill="rgb(0,0,0)" stroke="none">v4.10</tspan></tspan></tspan></text>
 <text class="TextShape" transform="translate(19023,10559) rotate(-44.9) translate(-19023,-10559)"><tspan class="TextParagraph" font-family="Liberation Sans, sans-serif" font-size="353px" font-weight="400"><tspan class="TextPosition" x="19023" y="10559"><tspan fill="rgb(0,0,0)" stroke="none">v4.11</tspan></tspan></tspan></text>
 <text class="TextShape" transform="translate(19613,10559) rotate(-44.9) translate(-19613,-10559)"><tspan class="TextParagraph" font-family="Liberation Sans, sans-serif" font-size="353px" font-weight="400"><tspan class="TextPosition" x="19613" y="10559"><tspan fill="rgb(0,0,0)" stroke="none">v4.12</tspan></tspan></tspan></text>
 <text class="TextShape" transform="translate(20202,10559) rotate(-44.9) translate(-20202,-10559)"><tspan class="TextParagraph" font-family="Liberation Sans, sans-serif" font-size="353px" font-weight="400"><tspan class="TextPosition" x="20202" y="10559"><tspan fill="rgb(0,0,0)" stroke="none">v4.13</tspan></tspan></tspan></text>
 <text class="TextShape" transform="translate(20792,10559) rotate(-44.9) translate(-20792,-10559)"><tspan class="TextParagraph" font-family="Liberation Sans, sans-serif" font-size="353px" font-weight="400"><tspan class="TextPosition" x="20792" y="10559"><tspan fill="rgb(0,0,0)" stroke="none">v4.14</tspan></tspan></tspan></text>
 <text class="TextShape" transform="translate(21381,10559) rotate(-44.9) translate(-21381,-10559)"><tspan class="TextParagraph" font-family="Liberation Sans, sans-serif" font-size="353px" font-weight="400"><tspan class="TextPosition" x="21381" y="10559"><tspan fill="rgb(0,0,0)" stroke="none">v4.15</tspan></tspan></tspan></text>
 <text class="TextShape" transform="translate(21971,10559) rotate(-44.9) translate(-21971,-10559)"><tspan class="TextParagraph" font-family="Liberation Sans, sans-serif" font-size="353px" font-weight="400"><tspan class="TextPosition" x="21971" y="10559"><tspan fill="rgb(0,0,0)" stroke="none">v4.16</tspan></tspan></tspan></text>
 <text class="TextShape"><tspan class="TextParagraph" font-family="Liberation Sans, sans-serif" font-size="353px" font-weight="400"><tspan class="TextPosition" x="836" y="9621"><tspan fill="rgb(0,0,0)" stroke="none">0%</tspan></tspan></tspan></text>
 <text class="TextShape"><tspan class="TextParagraph" font-family="Liberation Sans, sans-serif" font-size="353px" font-weight="400"><tspan class="TextPosition" x="651" y="8688"><tspan fill="rgb(0,0,0)" stroke="none">10%</tspan></tspan></tspan></text>
 <text class="TextShape"><tspan class="TextParagraph" font-family="Liberation Sans, sans-serif" font-size="353px" font-weight="400"><tspan class="TextPosition" x="651" y="7756"><tspan fill="rgb(0,0,0)" stroke="none">20%</tspan></tspan></tspan></text>
 <text class="TextShape"><tspan class="TextParagraph" font-family="Liberation Sans, sans-serif" font-size="353px" font-weight="400"><tspan class="TextPosition" x="651" y="6823"><tspan fill="rgb(0,0,0)" stroke="none">30%</tspan></tspan></tspan></text>
 <text class="TextShape"><tspan class="TextParagraph" font-family="Liberation Sans, sans-serif" font-size="353px" font-weight="400"><tspan class="TextPosition" x="651" y="5891"><tspan fill="rgb(0,0,0)" stroke="none">40%</tspan></tspan></tspan></text>
 <text class="TextShape"><tspan class="TextParagraph" font-family="Liberation Sans, sans-serif" font-size="353px" font-weight="400"><tspan class="TextPosition" x="651" y="4959"><tspan fill="rgb(0,0,0)" stroke="none">50%</tspan></tspan></tspan></text>
 <text class="TextShape"><tspan class="TextParagraph" font-family="Liberation Sans, sans-serif" font-size="353px" font-weight="400"><tspan class="TextPosition" x="651" y="4026"><tspan fill="rgb(0,0,0)" stroke="none">60%</tspan></tspan></tspan></text>
 <text class="TextShape"><tspan class="TextParagraph" font-family="Liberation Sans, sans-serif" font-size="353px" font-weight="400"><tspan class="TextPosition" x="651" y="3094"><tspan fill="rgb(0,0,0)" stroke="none">70%</tspan></tspan></tspan></text>
 <text class="TextShape"><tspan class="TextParagraph" font-family="Liberation Sans, sans-serif" font-size="353px" font-weight="400"><tspan class="TextPosition" x="651" y="2161"><tspan fill="rgb(0,0,0)" stroke="none">80%</tspan></tspan></tspan></text>
 <text class="TextShape"><tspan class="TextParagraph" font-family="Liberation Sans, sans-serif" font-size="353px" font-weight="400"><tspan class="TextPosition" x="651" y="1229"><tspan fill="rgb(0,0,0)" stroke="none">90%</tspan></tspan></tspan></text>
 <text class="TextShape"><tspan class="TextParagraph" font-family="Liberation Sans, sans-serif" font-size="353px" font-weight="400"><tspan class="TextPosition" x="466" y="297"><tspan fill="rgb(0,0,0)" stroke="none">100%</tspan></tspan></tspan></text>
 <path fill="rgb(0,69,134)" stroke="none" d="M 1899,1012 L 1794,1012 1794,801 2005,801 2005,1012 1899,1012 Z"/>
 <path fill="rgb(255,211,32)" stroke="none" d="M 1899,1759 L 1794,1759 1794,1548 2005,1548 2005,1759 1899,1759 Z"/>
 <text class="TextShape"><tspan class="TextParagraph" font-family="Liberation Sans, sans-serif" font-size="353px" font-weight="400"><tspan class="TextPosition" x="2105" y="985"><tspan fill="rgb(0,0,0)" stroke="none">GPU maintainer self-commits of total GPU commits</tspan></tspan></tspan></text>
 <text class="TextShape"><tspan class="TextParagraph" font-family="Liberation Sans, sans-serif" font-size="353px" font-weight="400"><tspan class="TextPosition" x="2105" y="1732"><tspan fill="rgb(0,0,0)" stroke="none">reviewed part of GPU maintainer self-commits</tspan></tspan></tspan></text>
</svg>
