<?xml version="1.0" encoding="UTF-8"?>
<!DOCTYPE svg PUBLIC "-//W3C//DTD SVG 1.1//EN" "http://www.w3.org/Graphics/SVG/1.1/DTD/svg11.dtd">
<svg width="233mm" height="111mm" viewBox="0 0 23300 11100" version="1.1" xmlns="http://www.w3.org/2000/svg" stroke-width="28.222" stroke-linejoin="round" xml:space="preserve">
 <path fill="rgb(255,255,255)" stroke="none" d="M 11651,11049 L 0,11049 0,0 23302,0 23302,11049 11651,11049 Z"/>
 <path fill="none" stroke="rgb(179,179,179)" stroke-linejoin="round" d="M 12213,9593 L 1590,9593 1590,221 22836,221 22836,9593 12213,9593 Z"/>
 <path fill="none" stroke="rgb(179,179,179)" stroke-linejoin="round" d="M 22835,9592 L 1590,9592"/>
 <path fill="none" stroke="rgb(179,179,179)" stroke-linejoin="round" d="M 22835,8654 L 1590,8654"/>
 <path fill="none" stroke="rgb(179,179,179)" stroke-linejoin="round" d="M 22835,7717 L 1590,7717"/>
 <path fill="none" stroke="rgb(179,179,179)" stroke-linejoin="round" d="M 22835,6780 L 1590,6780"/>
 <path fill="none" stroke="rgb(179,179,179)" stroke-linejoin="round" d="M 22835,5842 L 1590,5842"/>
 <path fill="none" stroke="rgb(179,179,179)" stroke-linejoin="round" d="M 22835,4906 L 1590,4906"/>
 <path fill="none" stroke="rgb(179,179,179)" stroke-linejoin="round" d="M 22835,3969 L 1590,3969"/>
 <path fill="none" stroke="rgb(179,179,179)" stroke-linejoin="round" d="M 22835,3031 L 1590,3031"/>
 <path fill="none" stroke="rgb(179,179,179)" stroke-linejoin="round" d="M 22835,2094 L 1590,2094"/>
 <path fill="none" stroke="rgb(179,179,179)" stroke-linejoin="round" d="M 22835,1157 L 1590,1157"/>
 <path fill="none" stroke="rgb(179,179,179)" stroke-linejoin="round" d="M 22835,220 L 1590,220"/>
 <path fill="none" stroke="rgb(179,179,179)" stroke-linejoin="round" d="M 1590,9742 L 1590,9592"/>
 <path fill="none" stroke="rgb(179,179,179)" stroke-linejoin="round" d="M 1590,9742 L 1590,9592"/>
 <path fill="none" stroke="rgb(179,179,179)" stroke-linejoin="round" d="M 2180,9742 L 2180,9592"/>
 <path fill="none" stroke="rgb(179,179,179)" stroke-linejoin="round" d="M 2180,9742 L 2180,9592"/>
 <path fill="none" stroke="rgb(179,179,179)" stroke-linejoin="round" d="M 2770,9742 L 2770,9592"/>
 <path fill="none" stroke="rgb(179,179,179)" stroke-linejoin="round" d="M 2770,9742 L 2770,9592"/>
 <path fill="none" stroke="rgb(179,179,179)" stroke-linejoin="round" d="M 3360,9742 L 3360,9592"/>
 <path fill="none" stroke="rgb(179,179,179)" stroke-linejoin="round" d="M 3360,9742 L 3360,9592"/>
 <path fill="none" stroke="rgb(179,179,179)" stroke-linejoin="round" d="M 3950,9742 L 3950,9592"/>
 <path fill="none" stroke="rgb(179,179,179)" stroke-linejoin="round" d="M 3950,9742 L 3950,9592"/>
 <path fill="none" stroke="rgb(179,179,179)" stroke-linejoin="round" d="M 4540,9742 L 4540,9592"/>
 <path fill="none" stroke="rgb(179,179,179)" stroke-linejoin="round" d="M 4540,9742 L 4540,9592"/>
 <path fill="none" stroke="rgb(179,179,179)" stroke-linejoin="round" d="M 5131,9742 L 5131,9592"/>
 <path fill="none" stroke="rgb(179,179,179)" stroke-linejoin="round" d="M 5131,9742 L 5131,9592"/>
 <path fill="none" stroke="rgb(179,179,179)" stroke-linejoin="round" d="M 5721,9742 L 5721,9592"/>
 <path fill="none" stroke="rgb(179,179,179)" stroke-linejoin="round" d="M 5721,9742 L 5721,9592"/>
 <path fill="none" stroke="rgb(179,179,179)" stroke-linejoin="round" d="M 6311,9742 L 6311,9592"/>
 <path fill="none" stroke="rgb(179,179,179)" stroke-linejoin="round" d="M 6311,9742 L 6311,9592"/>
 <path fill="none" stroke="rgb(179,179,179)" stroke-linejoin="round" d="M 6901,9742 L 6901,9592"/>
 <path fill="none" stroke="rgb(179,179,179)" stroke-linejoin="round" d="M 6901,9742 L 6901,9592"/>
 <path fill="none" stroke="rgb(179,179,179)" stroke-linejoin="round" d="M 7491,9742 L 7491,9592"/>
 <path fill="none" stroke="rgb(179,179,179)" stroke-linejoin="round" d="M 7491,9742 L 7491,9592"/>
 <path fill="none" stroke="rgb(179,179,179)" stroke-linejoin="round" d="M 8082,9742 L 8082,9592"/>
 <path fill="none" stroke="rgb(179,179,179)" stroke-linejoin="round" d="M 8082,9742 L 8082,9592"/>
 <path fill="none" stroke="rgb(179,179,179)" stroke-linejoin="round" d="M 8672,9742 L 8672,9592"/>
 <path fill="none" stroke="rgb(179,179,179)" stroke-linejoin="round" d="M 8672,9742 L 8672,9592"/>
 <path fill="none" stroke="rgb(179,179,179)" stroke-linejoin="round" d="M 9262,9742 L 9262,9592"/>
 <path fill="none" stroke="rgb(179,179,179)" stroke-linejoin="round" d="M 9262,9742 L 9262,9592"/>
 <path fill="none" stroke="rgb(179,179,179)" stroke-linejoin="round" d="M 9852,9742 L 9852,9592"/>
 <path fill="none" stroke="rgb(179,179,179)" stroke-linejoin="round" d="M 9852,9742 L 9852,9592"/>
 <path fill="none" stroke="rgb(179,179,179)" stroke-linejoin="round" d="M 10442,9742 L 10442,9592"/>
 <path fill="none" stroke="rgb(179,179,179)" stroke-linejoin="round" d="M 10442,9742 L 10442,9592"/>
 <path fill="none" stroke="rgb(179,179,179)" stroke-linejoin="round" d="M 11033,9742 L 11033,9592"/>
 <path fill="none" stroke="rgb(179,179,179)" stroke-linejoin="round" d="M 11033,9742 L 11033,9592"/>
 <path fill="none" stroke="rgb(179,179,179)" stroke-linejoin="round" d="M 11623,9742 L 11623,9592"/>
 <path fill="none" stroke="rgb(179,179,179)" stroke-linejoin="round" d="M 11623,9742 L 11623,9592"/>
 <path fill="none" stroke="rgb(179,179,179)" stroke-linejoin="round" d="M 12212,9742 L 12212,9592"/>
 <path fill="none" stroke="rgb(179,179,179)" stroke-linejoin="round" d="M 12212,9742 L 12212,9592"/>
 <path fill="none" stroke="rgb(179,179,179)" stroke-linejoin="round" d="M 12802,9742 L 12802,9592"/>
 <path fill="none" stroke="rgb(179,179,179)" stroke-linejoin="round" d="M 12802,9742 L 12802,9592"/>
 <path fill="none" stroke="rgb(179,179,179)" stroke-linejoin="round" d="M 13392,9742 L 13392,9592"/>
 <path fill="none" stroke="rgb(179,179,179)" stroke-linejoin="round" d="M 13392,9742 L 13392,9592"/>
 <path fill="none" stroke="rgb(179,179,179)" stroke-linejoin="round" d="M 13983,9742 L 13983,9592"/>
 <path fill="none" stroke="rgb(179,179,179)" stroke-linejoin="round" d="M 13983,9742 L 13983,9592"/>
 <path fill="none" stroke="rgb(179,179,179)" stroke-linejoin="round" d="M 14573,9742 L 14573,9592"/>
 <path fill="none" stroke="rgb(179,179,179)" stroke-linejoin="round" d="M 14573,9742 L 14573,9592"/>
 <path fill="none" stroke="rgb(179,179,179)" stroke-linejoin="round" d="M 15163,9742 L 15163,9592"/>
 <path fill="none" stroke="rgb(179,179,179)" stroke-linejoin="round" d="M 15163,9742 L 15163,9592"/>
 <path fill="none" stroke="rgb(179,179,179)" stroke-linejoin="round" d="M 15753,9742 L 15753,9592"/>
 <path fill="none" stroke="rgb(179,179,179)" stroke-linejoin="round" d="M 15753,9742 L 15753,9592"/>
 <path fill="none" stroke="rgb(179,179,179)" stroke-linejoin="round" d="M 16343,9742 L 16343,9592"/>
 <path fill="none" stroke="rgb(179,179,179)" stroke-linejoin="round" d="M 16343,9742 L 16343,9592"/>
 <path fill="none" stroke="rgb(179,179,179)" stroke-linejoin="round" d="M 16934,9742 L 16934,9592"/>
 <path fill="none" stroke="rgb(179,179,179)" stroke-linejoin="round" d="M 16934,9742 L 16934,9592"/>
 <path fill="none" stroke="rgb(179,179,179)" stroke-linejoin="round" d="M 17524,9742 L 17524,9592"/>
 <path fill="none" stroke="rgb(179,179,179)" stroke-linejoin="round" d="M 17524,9742 L 17524,9592"/>
 <path fill="none" stroke="rgb(179,179,179)" stroke-linejoin="round" d="M 18114,9742 L 18114,9592"/>
 <path fill="none" stroke="rgb(179,179,179)" stroke-linejoin="round" d="M 18114,9742 L 18114,9592"/>
 <path fill="none" stroke="rgb(179,179,179)" stroke-linejoin="round" d="M 18704,9742 L 18704,9592"/>
 <path fill="none" stroke="rgb(179,179,179)" stroke-linejoin="round" d="M 18704,9742 L 18704,9592"/>
 <path fill="none" stroke="rgb(179,179,179)" stroke-linejoin="round" d="M 19294,9742 L 19294,9592"/>
 <path fill="none" stroke="rgb(179,179,179)" stroke-linejoin="round" d="M 19294,9742 L 19294,9592"/>
 <path fill="none" stroke="rgb(179,179,179)" stroke-linejoin="round" d="M 19885,9742 L 19885,9592"/>
 <path fill="none" stroke="rgb(179,179,179)" stroke-linejoin="round" d="M 19885,9742 L 19885,9592"/>
 <path fill="none" stroke="rgb(179,179,179)" stroke-linejoin="round" d="M 20475,9742 L 20475,9592"/>
 <path fill="none" stroke="rgb(179,179,179)" stroke-linejoin="round" d="M 20475,9742 L 20475,9592"/>
 <path fill="none" stroke="rgb(179,179,179)" stroke-linejoin="round" d="M 21065,9742 L 21065,9592"/>
 <path fill="none" stroke="rgb(179,179,179)" stroke-linejoin="round" d="M 21065,9742 L 21065,9592"/>
 <path fill="none" stroke="rgb(179,179,179)" stroke-linejoin="round" d="M 21655,9742 L 21655,9592"/>
 <path fill="none" stroke="rgb(179,179,179)" stroke-linejoin="round" d="M 21655,9742 L 21655,9592"/>
 <path fill="none" stroke="rgb(179,179,179)" stroke-linejoin="round" d="M 22245,9742 L 22245,9592"/>
 <path fill="none" stroke="rgb(179,179,179)" stroke-linejoin="round" d="M 22245,9742 L 22245,9592"/>
 <path fill="none" stroke="rgb(179,179,179)" stroke-linejoin="round" d="M 22835,9742 L 22835,9592"/>
 <path fill="none" stroke="rgb(179,179,179)" stroke-linejoin="round" d="M 22835,9742 L 22835,9592"/>
 <path fill="none" stroke="rgb(179,179,179)" stroke-linejoin="round" d="M 1590,9592 L 22835,9592"/>
 <path fill="none" stroke="rgb(179,179,179)" stroke-linejoin="round" d="M 1440,9592 L 1590,9592"/>
 <path fill="none" stroke="rgb(179,179,179)" stroke-linejoin="round" d="M 1440,9592 L 1590,9592"/>
 <path fill="none" stroke="rgb(179,179,179)" stroke-linejoin="round" d="M 1440,8654 L 1590,8654"/>
 <path fill="none" stroke="rgb(179,179,179)" stroke-linejoin="round" d="M 1440,8654 L 1590,8654"/>
 <path fill="none" stroke="rgb(179,179,179)" stroke-linejoin="round" d="M 1440,7717 L 1590,7717"/>
 <path fill="none" stroke="rgb(179,179,179)" stroke-linejoin="round" d="M 1440,7717 L 1590,7717"/>
 <path fill="none" stroke="rgb(179,179,179)" stroke-linejoin="round" d="M 1440,6780 L 1590,6780"/>
 <path fill="none" stroke="rgb(179,179,179)" stroke-linejoin="round" d="M 1440,6780 L 1590,6780"/>
 <path fill="none" stroke="rgb(179,179,179)" stroke-linejoin="round" d="M 1440,5842 L 1590,5842"/>
 <path fill="none" stroke="rgb(179,179,179)" stroke-linejoin="round" d="M 1440,5842 L 1590,5842"/>
 <path fill="none" stroke="rgb(179,179,179)" stroke-linejoin="round" d="M 1440,4906 L 1590,4906"/>
 <path fill="none" stroke="rgb(179,179,179)" stroke-linejoin="round" d="M 1440,4906 L 1590,4906"/>
 <path fill="none" stroke="rgb(179,179,179)" stroke-linejoin="round" d="M 1440,3969 L 1590,3969"/>
 <path fill="none" stroke="rgb(179,179,179)" stroke-linejoin="round" d="M 1440,3969 L 1590,3969"/>
 <path fill="none" stroke="rgb(179,179,179)" stroke-linejoin="round" d="M 1440,3031 L 1590,3031"/>
 <path fill="none" stroke="rgb(179,179,179)" stroke-linejoin="round" d="M 1440,3031 L 1590,3031"/>
 <path fill="none" stroke="rgb(179,179,179)" stroke-linejoin="round" d="M 1440,2094 L 1590,2094"/>
 <path fill="none" stroke="rgb(179,179,179)" stroke-linejoin="round" d="M 1440,2094 L 1590,2094"/>
 <path fill="none" stroke="rgb(179,179,179)" stroke-linejoin="round" d="M 1440,1157 L 1590,1157"/>
 <path fill="none" stroke="rgb(179,179,179)" stroke-linejoin="round" d="M 1440,1157 L 1590,1157"/>
 <path fill="none" stroke="rgb(179,179,179)" stroke-linejoin="round" d="M 1440,220 L 1590,220"/>
 <path fill="none" stroke="rgb(179,179,179)" stroke-linejoin="round" d="M 1440,220 L 1590,220"/>
 <path fill="none" stroke="rgb(179,179,179)" stroke-linejoin="round" d="M 1590,9592 L 1590,220"/>
 <path fill="rgb(0,69,134)" stroke="none" d="M 22344,9592 L 22540,9592 22540,8358 22344,8358 22344,9592 Z"/>
 <path fill="rgb(0,69,134)" stroke="none" d="M 21753,9592 L 21950,9592 21950,8459 21753,8459 21753,9592 Z"/>
 <path fill="rgb(0,69,134)" stroke="none" d="M 21163,9592 L 21360,9592 21360,8538 21163,8538 21163,9592 Z"/>
 <path fill="rgb(0,69,134)" stroke="none" d="M 20573,9592 L 20770,9592 20770,8219 20573,8219 20573,9592 Z"/>
 <path fill="rgb(0,69,134)" stroke="none" d="M 19983,9592 L 20180,9592 20180,8247 19983,8247 19983,9592 Z"/>
 <path fill="rgb(0,69,134)" stroke="none" d="M 19393,9592 L 19589,9592 19589,8254 19393,8254 19393,9592 Z"/>
 <path fill="rgb(0,69,134)" stroke="none" d="M 18803,9592 L 18999,9592 18999,8284 18803,8284 18803,9592 Z"/>
 <path fill="rgb(0,69,134)" stroke="none" d="M 18212,9592 L 18409,9592 18409,8317 18212,8317 18212,9592 Z"/>
 <path fill="rgb(0,69,134)" stroke="none" d="M 17622,9592 L 17819,9592 17819,8079 17622,8079 17622,9592 Z"/>
 <path fill="rgb(0,69,134)" stroke="none" d="M 17032,9592 L 17229,9592 17229,8339 17032,8339 17032,9592 Z"/>
 <path fill="rgb(0,69,134)" stroke="none" d="M 16442,9592 L 16638,9592 16638,8430 16442,8430 16442,9592 Z"/>
 <path fill="rgb(0,69,134)" stroke="none" d="M 15852,9592 L 16048,9592 16048,7966 15852,7966 15852,9592 Z"/>
 <path fill="rgb(0,69,134)" stroke="none" d="M 15261,9592 L 15458,9592 15458,8647 15261,8647 15261,9592 Z"/>
 <path fill="rgb(0,69,134)" stroke="none" d="M 14671,9592 L 14868,9592 14868,8288 14671,8288 14671,9592 Z"/>
 <path fill="rgb(0,69,134)" stroke="none" d="M 14081,9592 L 14278,9592 14278,7789 14081,7789 14081,9592 Z"/>
 <path fill="rgb(0,69,134)" stroke="none" d="M 13491,9592 L 13687,9592 13687,8259 13491,8259 13491,9592 Z"/>
 <path fill="rgb(0,69,134)" stroke="none" d="M 12901,9592 L 13097,9592 13097,8249 12901,8249 12901,9592 Z"/>
 <path fill="rgb(0,69,134)" stroke="none" d="M 12310,9592 L 12507,9592 12507,8143 12310,8143 12310,9592 Z"/>
 <path fill="rgb(0,69,134)" stroke="none" d="M 11720,9592 L 11917,9592 11917,8371 11720,8371 11720,9592 Z"/>
 <path fill="rgb(0,69,134)" stroke="none" d="M 11131,9592 L 11328,9592 11328,8266 11131,8266 11131,9592 Z"/>
 <path fill="rgb(0,69,134)" stroke="none" d="M 10541,9592 L 10738,9592 10738,8224 10541,8224 10541,9592 Z"/>
 <path fill="rgb(0,69,134)" stroke="none" d="M 9951,9592 L 10147,9592 10147,8081 9951,8081 9951,9592 Z"/>
 <path fill="rgb(0,69,134)" stroke="none" d="M 9360,9592 L 9557,9592 9557,8199 9360,8199 9360,9592 Z"/>
 <path fill="rgb(0,69,134)" stroke="none" d="M 8770,9592 L 8967,9592 8967,8002 8770,8002 8770,9592 Z"/>
 <path fill="rgb(0,69,134)" stroke="none" d="M 8180,9592 L 8377,9592 8377,7996 8180,7996 8180,9592 Z"/>
 <path fill="rgb(0,69,134)" stroke="none" d="M 7590,9592 L 7787,9592 7787,8102 7590,8102 7590,9592 Z"/>
 <path fill="rgb(0,69,134)" stroke="none" d="M 7000,9592 L 7196,9592 7196,7682 7000,7682 7000,9592 Z"/>
 <path fill="rgb(0,69,134)" stroke="none" d="M 6409,9592 L 6606,9592 6606,7448 6409,7448 6409,9592 Z"/>
 <path fill="rgb(0,69,134)" stroke="none" d="M 5819,9592 L 6016,9592 6016,7577 5819,7577 5819,9592 Z"/>
 <path fill="rgb(0,69,134)" stroke="none" d="M 5229,9592 L 5426,9592 5426,7486 5229,7486 5229,9592 Z"/>
 <path fill="rgb(0,69,134)" stroke="none" d="M 4639,9592 L 4836,9592 4836,7668 4639,7668 4639,9592 Z"/>
 <path fill="rgb(0,69,134)" stroke="none" d="M 4049,9592 L 4245,9592 4245,7348 4049,7348 4049,9592 Z"/>
 <path fill="rgb(0,69,134)" stroke="none" d="M 3458,9592 L 3655,9592 3655,7053 3458,7053 3458,9592 Z"/>
 <path fill="rgb(0,69,134)" stroke="none" d="M 2868,9592 L 3065,9592 3065,7166 2868,7166 2868,9592 Z"/>
 <path fill="rgb(0,69,134)" stroke="none" d="M 2278,9592 L 2475,9592 2475,7412 2278,7412 2278,9592 Z"/>
 <path fill="rgb(0,69,134)" stroke="none" d="M 1688,9592 L 1885,9592 1885,7422 1688,7422 1688,9592 Z"/>
 <path fill="rgb(255,211,32)" stroke="none" d="M 22540,9592 L 22737,9592 22737,6161 22540,6161 22540,9592 Z"/>
 <path fill="rgb(255,211,32)" stroke="none" d="M 21950,9592 L 22147,9592 22147,6079 21950,6079 21950,9592 Z"/>
 <path fill="rgb(255,211,32)" stroke="none" d="M 21360,9592 L 21557,9592 21557,7220 21360,7220 21360,9592 Z"/>
 <path fill="rgb(255,211,32)" stroke="none" d="M 20770,9592 L 20967,9592 20967,6352 20770,6352 20770,9592 Z"/>
 <path fill="rgb(255,211,32)" stroke="none" d="M 20180,9592 L 20376,9592 20376,7108 20180,7108 20180,9592 Z"/>
 <path fill="rgb(255,211,32)" stroke="none" d="M 19589,9592 L 19786,9592 19786,5984 19589,5984 19589,9592 Z"/>
 <path fill="rgb(255,211,32)" stroke="none" d="M 18999,9592 L 19196,9592 19196,7409 18999,7409 18999,9592 Z"/>
 <path fill="rgb(255,211,32)" stroke="none" d="M 18409,9592 L 18606,9592 18606,7057 18409,7057 18409,9592 Z"/>
 <path fill="rgb(255,211,32)" stroke="none" d="M 17819,9592 L 18016,9592 18016,7960 17819,7960 17819,9592 Z"/>
 <path fill="rgb(255,211,32)" stroke="none" d="M 17229,9592 L 17425,9592 17425,6926 17229,6926 17229,9592 Z"/>
 <path fill="rgb(255,211,32)" stroke="none" d="M 16638,9592 L 16835,9592 16835,6570 16638,6570 16638,9592 Z"/>
 <path fill="rgb(255,211,32)" stroke="none" d="M 16048,9592 L 16245,9592 16245,6631 16048,6631 16048,9592 Z"/>
 <path fill="rgb(255,211,32)" stroke="none" d="M 15458,9592 L 15655,9592 15655,7293 15458,7293 15458,9592 Z"/>
 <path fill="rgb(255,211,32)" stroke="none" d="M 14868,9592 L 15065,9592 15065,6892 14868,6892 14868,9592 Z"/>
 <path fill="rgb(255,211,32)" stroke="none" d="M 14278,9592 L 14474,9592 14474,7039 14278,7039 14278,9592 Z"/>
 <path fill="rgb(255,211,32)" stroke="none" d="M 13687,9592 L 13884,9592 13884,7849 13687,7849 13687,9592 Z"/>
 <path fill="rgb(255,211,32)" stroke="none" d="M 13097,9592 L 13294,9592 13294,7599 13097,7599 13097,9592 Z"/>
 <path fill="rgb(255,211,32)" stroke="none" d="M 12507,9592 L 12704,9592 12704,7448 12507,7448 12507,9592 Z"/>
 <path fill="rgb(255,211,32)" stroke="none" d="M 11917,9592 L 12114,9592 12114,7304 11917,7304 11917,9592 Z"/>
 <path fill="rgb(255,211,32)" stroke="none" d="M 11328,9592 L 11524,9592 11524,6798 11328,6798 11328,9592 Z"/>
 <path fill="rgb(255,211,32)" stroke="none" d="M 10738,9592 L 10934,9592 10934,6628 10738,6628 10738,9592 Z"/>
 <path fill="rgb(255,211,32)" stroke="none" d="M 10147,9592 L 10344,9592 10344,6510 10147,6510 10147,9592 Z"/>
 <path fill="rgb(255,211,32)" stroke="none" d="M 9557,9592 L 9754,9592 9754,7188 9557,7188 9557,9592 Z"/>
 <path fill="rgb(255,211,32)" stroke="none" d="M 8967,9592 L 9164,9592 9164,7276 8967,7276 8967,9592 Z"/>
 <path fill="rgb(255,211,32)" stroke="none" d="M 8377,9592 L 8573,9592 8573,6932 8377,6932 8377,9592 Z"/>
 <path fill="rgb(255,211,32)" stroke="none" d="M 7787,9592 L 7983,9592 7983,6835 7787,6835 7787,9592 Z"/>
 <path fill="rgb(255,211,32)" stroke="none" d="M 7196,9592 L 7393,9592 7393,7277 7196,7277 7196,9592 Z"/>
 <path fill="rgb(255,211,32)" stroke="none" d="M 6606,9592 L 6803,9592 6803,7052 6606,7052 6606,9592 Z"/>
 <path fill="rgb(255,211,32)" stroke="none" d="M 6016,9592 L 6213,9592 6213,7544 6016,7544 6016,9592 Z"/>
 <path fill="rgb(255,211,32)" stroke="none" d="M 5426,9592 L 5622,9592 5622,6853 5426,6853 5426,9592 Z"/>
 <path fill="rgb(255,211,32)" stroke="none" d="M 4836,9592 L 5032,9592 5032,7372 4836,7372 4836,9592 Z"/>
 <path fill="rgb(255,211,32)" stroke="none" d="M 4245,9592 L 4442,9592 4442,7841 4245,7841 4245,9592 Z"/>
 <path fill="rgb(255,211,32)" stroke="none" d="M 3655,9592 L 3852,9592 3852,7266 3655,7266 3655,9592 Z"/>
 <path fill="rgb(255,211,32)" stroke="none" d="M 3065,9592 L 3262,9592 3262,8019 3065,8019 3065,9592 Z"/>
 <path fill="rgb(255,211,32)" stroke="none" d="M 2475,9592 L 2672,9592 2672,8095 2475,8095 2475,9592 Z"/>
 <path fill="rgb(255,211,32)" stroke="none" d="M 1885,9592 L 2081,9592 2081,7290 1885,7290 1885,9592 Z"/>
 <text class="TextShape" transform="translate(1472,10478) rotate(-44.9) translate(-1472,-10478)"><tspan class="TextParagraph" font-family="Liberation Sans, sans-serif" font-size="353px" font-weight="400"><tspan class="TextPosition" x="1472" y="10478"><tspan fill="rgb(0,0,0)" stroke="none">v3.1</tspan></tspan></tspan></text>
 <text class="TextShape" transform="translate(2062,10478) rotate(-44.9) translate(-2062,-10478)"><tspan class="TextParagraph" font-family="Liberation Sans, sans-serif" font-size="353px" font-weight="400"><tspan class="TextPosition" x="2062" y="10478"><tspan fill="rgb(0,0,0)" stroke="none">v3.2</tspan></tspan></tspan></text>
 <text class="TextShape" transform="translate(2652,10478) rotate(-44.9) translate(-2652,-10478)"><tspan class="TextParagraph" font-family="Liberation Sans, sans-serif" font-size="353px" font-weight="400"><tspan class="TextPosition" x="2652" y="10478"><tspan fill="rgb(0,0,0)" stroke="none">v3.3</tspan></tspan></tspan></text>
 <text class="TextShape" transform="translate(3242,10478) rotate(-44.9) translate(-3242,-10478)"><tspan class="TextParagraph" font-family="Liberation Sans, sans-serif" font-size="353px" font-weight="400"><tspan class="TextPosition" x="3242" y="10478"><tspan fill="rgb(0,0,0)" stroke="none">v3.4</tspan></tspan></tspan></text>
 <text class="TextShape" transform="translate(3831,10478) rotate(-44.9) translate(-3831,-10478)"><tspan class="TextParagraph" font-family="Liberation Sans, sans-serif" font-size="353px" font-weight="400"><tspan class="TextPosition" x="3831" y="10478"><tspan fill="rgb(0,0,0)" stroke="none">v3.5</tspan></tspan></tspan></text>
 <text class="TextShape" transform="translate(4422,10478) rotate(-44.9) translate(-4422,-10478)"><tspan class="TextParagraph" font-family="Liberation Sans, sans-serif" font-size="353px" font-weight="400"><tspan class="TextPosition" x="4422" y="10478"><tspan fill="rgb(0,0,0)" stroke="none">v3.6</tspan></tspan></tspan></text>
 <text class="TextShape" transform="translate(5012,10478) rotate(-44.9) translate(-5012,-10478)"><tspan class="TextParagraph" font-family="Liberation Sans, sans-serif" font-size="353px" font-weight="400"><tspan class="TextPosition" x="5012" y="10478"><tspan fill="rgb(0,0,0)" stroke="none">v3.7</tspan></tspan></tspan></text>
 <text class="TextShape" transform="translate(5602,10478) rotate(-44.9) translate(-5602,-10478)"><tspan class="TextParagraph" font-family="Liberation Sans, sans-serif" font-size="353px" font-weight="400"><tspan class="TextPosition" x="5602" y="10478"><tspan fill="rgb(0,0,0)" stroke="none">v3.8</tspan></tspan></tspan></text>
 <text class="TextShape" transform="translate(6192,10478) rotate(-44.9) translate(-6192,-10478)"><tspan class="TextParagraph" font-family="Liberation Sans, sans-serif" font-size="353px" font-weight="400"><tspan class="TextPosition" x="6192" y="10478"><tspan fill="rgb(0,0,0)" stroke="none">v3.9</tspan></tspan></tspan></text>
 <text class="TextShape" transform="translate(6651,10610) rotate(-44.9) translate(-6651,-10610)"><tspan class="TextParagraph" font-family="Liberation Sans, sans-serif" font-size="353px" font-weight="400"><tspan class="TextPosition" x="6651" y="10610"><tspan fill="rgb(0,0,0)" stroke="none">v3.10</tspan></tspan></tspan></text>
 <text class="TextShape" transform="translate(7242,10610) rotate(-44.9) translate(-7242,-10610)"><tspan class="TextParagraph" font-family="Liberation Sans, sans-serif" font-size="353px" font-weight="400"><tspan class="TextPosition" x="7242" y="10610"><tspan fill="rgb(0,0,0)" stroke="none">v3.11</tspan></tspan></tspan></text>
 <text class="TextShape" transform="translate(7832,10610) rotate(-44.9) translate(-7832,-10610)"><tspan class="TextParagraph" font-family="Liberation Sans, sans-serif" font-size="353px" font-weight="400"><tspan class="TextPosition" x="7832" y="10610"><tspan fill="rgb(0,0,0)" stroke="none">v3.12</tspan></tspan></tspan></text>
 <text class="TextShape" transform="translate(8422,10610) rotate(-44.9) translate(-8422,-10610)"><tspan class="TextParagraph" font-family="Liberation Sans, sans-serif" font-size="353px" font-weight="400"><tspan class="TextPosition" x="8422" y="10610"><tspan fill="rgb(0,0,0)" stroke="none">v3.13</tspan></tspan></tspan></text>
 <text class="TextShape" transform="translate(9012,10610) rotate(-44.9) translate(-9012,-10610)"><tspan class="TextParagraph" font-family="Liberation Sans, sans-serif" font-size="353px" font-weight="400"><tspan class="TextPosition" x="9012" y="10610"><tspan fill="rgb(0,0,0)" stroke="none">v3.14</tspan></tspan></tspan></text>
 <text class="TextShape" transform="translate(9602,10610) rotate(-44.9) translate(-9602,-10610)"><tspan class="TextParagraph" font-family="Liberation Sans, sans-serif" font-size="353px" font-weight="400"><tspan class="TextPosition" x="9602" y="10610"><tspan fill="rgb(0,0,0)" stroke="none">v3.15</tspan></tspan></tspan></text>
 <text class="TextShape" transform="translate(10193,10610) rotate(-44.9) translate(-10193,-10610)"><tspan class="TextParagraph" font-family="Liberation Sans, sans-serif" font-size="353px" font-weight="400"><tspan class="TextPosition" x="10193" y="10610"><tspan fill="rgb(0,0,0)" stroke="none">v3.16</tspan></tspan></tspan></text>
 <text class="TextShape" transform="translate(10783,10610) rotate(-44.9) translate(-10783,-10610)"><tspan class="TextParagraph" font-family="Liberation Sans, sans-serif" font-size="353px" font-weight="400"><tspan class="TextPosition" x="10783" y="10610"><tspan fill="rgb(0,0,0)" stroke="none">v3.17</tspan></tspan></tspan></text>
 <text class="TextShape" transform="translate(11373,10610) rotate(-44.9) translate(-11373,-10610)"><tspan class="TextParagraph" font-family="Liberation Sans, sans-serif" font-size="353px" font-weight="400"><tspan class="TextPosition" x="11373" y="10610"><tspan fill="rgb(0,0,0)" stroke="none">v3.18</tspan></tspan></tspan></text>
 <text class="TextShape" transform="translate(11963,10610) rotate(-44.9) translate(-11963,-10610)"><tspan class="TextParagraph" font-family="Liberation Sans, sans-serif" font-size="353px" font-weight="400"><tspan class="TextPosition" x="11963" y="10610"><tspan fill="rgb(0,0,0)" stroke="none">v3.19</tspan></tspan></tspan></text>
 <text class="TextShape" transform="translate(12684,10478) rotate(-44.9) translate(-12684,-10478)"><tspan class="TextParagraph" font-family="Liberation Sans, sans-serif" font-size="353px" font-weight="400"><tspan class="TextPosition" x="12684" y="10478"><tspan fill="rgb(0,0,0)" stroke="none">v4.0</tspan></tspan></tspan></text>
 <text class="TextShape" transform="translate(13274,10478) rotate(-44.9) translate(-13274,-10478)"><tspan class="TextParagraph" font-family="Liberation Sans, sans-serif" font-size="353px" font-weight="400"><tspan class="TextPosition" x="13274" y="10478"><tspan fill="rgb(0,0,0)" stroke="none">v4.1</tspan></tspan></tspan></text>
 <text class="TextShape" transform="translate(13865,10478) rotate(-44.9) translate(-13865,-10478)"><tspan class="TextParagraph" font-family="Liberation Sans, sans-serif" font-size="353px" font-weight="400"><tspan class="TextPosition" x="13865" y="10478"><tspan fill="rgb(0,0,0)" stroke="none">v4.2</tspan></tspan></tspan></text>
 <text class="TextShape" transform="translate(14455,10478) rotate(-44.9) translate(-14455,-10478)"><tspan class="TextParagraph" font-family="Liberation Sans, sans-serif" font-size="353px" font-weight="400"><tspan class="TextPosition" x="14455" y="10478"><tspan fill="rgb(0,0,0)" stroke="none">v4.3</tspan></tspan></tspan></text>
 <text class="TextShape" transform="translate(15045,10478) rotate(-44.9) translate(-15045,-10478)"><tspan class="TextParagraph" font-family="Liberation Sans, sans-serif" font-size="353px" font-weight="400"><tspan class="TextPosition" x="15045" y="10478"><tspan fill="rgb(0,0,0)" stroke="none">v4.4</tspan></tspan></tspan></text>
 <text class="TextShape" transform="translate(15635,10478) rotate(-44.9) translate(-15635,-10478)"><tspan class="TextParagraph" font-family="Liberation Sans, sans-serif" font-size="353px" font-weight="400"><tspan class="TextPosition" x="15635" y="10478"><tspan fill="rgb(0,0,0)" stroke="none">v4.5</tspan></tspan></tspan></text>
 <text class="TextShape" transform="translate(16225,10478) rotate(-44.9) translate(-16225,-10478)"><tspan class="TextParagraph" font-family="Liberation Sans, sans-serif" font-size="353px" font-weight="400"><tspan class="TextPosition" x="16225" y="10478"><tspan fill="rgb(0,0,0)" stroke="none">v4.6</tspan></tspan></tspan></text>
 <text class="TextShape" transform="translate(16816,10478) rotate(-44.9) translate(-16816,-10478)"><tspan class="TextParagraph" font-family="Liberation Sans, sans-serif" font-size="353px" font-weight="400"><tspan class="TextPosition" x="16816" y="10478"><tspan fill="rgb(0,0,0)" stroke="none">v4.7</tspan></tspan></tspan></text>
 <text class="TextShape" transform="translate(17406,10478) rotate(-44.9) translate(-17406,-10478)"><tspan class="TextParagraph" font-family="Liberation Sans, sans-serif" font-size="353px" font-weight="400"><tspan class="TextPosition" x="17406" y="10478"><tspan fill="rgb(0,0,0)" stroke="none">v4.8</tspan></tspan></tspan></text>
 <text class="TextShape" transform="translate(17996,10478) rotate(-44.9) translate(-17996,-10478)"><tspan class="TextParagraph" font-family="Liberation Sans, sans-serif" font-size="353px" font-weight="400"><tspan class="TextPosition" x="17996" y="10478"><tspan fill="rgb(0,0,0)" stroke="none">v4.9</tspan></tspan></tspan></text>
 <text class="TextShape" transform="translate(18455,10610) rotate(-44.9) translate(-18455,-10610)"><tspan class="TextParagraph" font-family="Liberation Sans, sans-serif" font-size="353px" font-weight="400"><tspan class="TextPosition" x="18455" y="10610"><tspan fill="rgb(0,0,0)" stroke="none">v4.10</tspan></tspan></tspan></text>
 <text class="TextShape" transform="translate(19045,10610) rotate(-44.9) translate(-19045,-10610)"><tspan class="TextParagraph" font-family="Liberation Sans, sans-serif" font-size="353px" font-weight="400"><tspan class="TextPosition" x="19045" y="10610"><tspan fill="rgb(0,0,0)" stroke="none">v4.11</tspan></tspan></tspan></text>
 <text class="TextShape" transform="translate(19636,10610) rotate(-44.9) translate(-19636,-10610)"><tspan class="TextParagraph" font-family="Liberation Sans, sans-serif" font-size="353px" font-weight="400"><tspan class="TextPosition" x="19636" y="10610"><tspan fill="rgb(0,0,0)" stroke="none">v4.12</tspan></tspan></tspan></text>
 <text class="TextShape" transform="translate(20226,10610) rotate(-44.9) translate(-20226,-10610)"><tspan class="TextParagraph" font-family="Liberation Sans, sans-serif" font-size="353px" font-weight="400"><tspan class="TextPosition" x="20226" y="10610"><tspan fill="rgb(0,0,0)" stroke="none">v4.13</tspan></tspan></tspan></text>
 <text class="TextShape" transform="translate(20816,10610) rotate(-44.9) translate(-20816,-10610)"><tspan class="TextParagraph" font-family="Liberation Sans, sans-serif" font-size="353px" font-weight="400"><tspan class="TextPosition" x="20816" y="10610"><tspan fill="rgb(0,0,0)" stroke="none">v4.14</tspan></tspan></tspan></text>
 <text class="TextShape" transform="translate(21406,10610) rotate(-44.9) translate(-21406,-10610)"><tspan class="TextParagraph" font-family="Liberation Sans, sans-serif" font-size="353px" font-weight="400"><tspan class="TextPosition" x="21406" y="10610"><tspan fill="rgb(0,0,0)" stroke="none">v4.15</tspan></tspan></tspan></text>
 <text class="TextShape" transform="translate(21996,10610) rotate(-44.9) translate(-21996,-10610)"><tspan class="TextParagraph" font-family="Liberation Sans, sans-serif" font-size="353px" font-weight="400"><tspan class="TextPosition" x="21996" y="10610"><tspan fill="rgb(0,0,0)" stroke="none">v4.16</tspan></tspan></tspan></text>
 <text class="TextShape"><tspan class="TextParagraph" font-family="Liberation Sans, sans-serif" font-size="353px" font-weight="400"><tspan class="TextPosition" x="837" y="9672"><tspan fill="rgb(0,0,0)" stroke="none">0%</tspan></tspan></tspan></text>
 <text class="TextShape"><tspan class="TextParagraph" font-family="Liberation Sans, sans-serif" font-size="353px" font-weight="400"><tspan class="TextPosition" x="652" y="8734"><tspan fill="rgb(0,0,0)" stroke="none">10%</tspan></tspan></tspan></text>
 <text class="TextShape"><tspan class="TextParagraph" font-family="Liberation Sans, sans-serif" font-size="353px" font-weight="400"><tspan class="TextPosition" x="652" y="7797"><tspan fill="rgb(0,0,0)" stroke="none">20%</tspan></tspan></tspan></text>
 <text class="TextShape"><tspan class="TextParagraph" font-family="Liberation Sans, sans-serif" font-size="353px" font-weight="400"><tspan class="TextPosition" x="652" y="6860"><tspan fill="rgb(0,0,0)" stroke="none">30%</tspan></tspan></tspan></text>
 <text class="TextShape"><tspan class="TextParagraph" font-family="Liberation Sans, sans-serif" font-size="353px" font-weight="400"><tspan class="TextPosition" x="652" y="5922"><tspan fill="rgb(0,0,0)" stroke="none">40%</tspan></tspan></tspan></text>
 <text class="TextShape"><tspan class="TextParagraph" font-family="Liberation Sans, sans-serif" font-size="353px" font-weight="400"><tspan class="TextPosition" x="652" y="4985"><tspan fill="rgb(0,0,0)" stroke="none">50%</tspan></tspan></tspan></text>
 <text class="TextShape"><tspan class="TextParagraph" font-family="Liberation Sans, sans-serif" font-size="353px" font-weight="400"><tspan class="TextPosition" x="652" y="4048"><tspan fill="rgb(0,0,0)" stroke="none">60%</tspan></tspan></tspan></text>
 <text class="TextShape"><tspan class="TextParagraph" font-family="Liberation Sans, sans-serif" font-size="353px" font-weight="400"><tspan class="TextPosition" x="652" y="3110"><tspan fill="rgb(0,0,0)" stroke="none">70%</tspan></tspan></tspan></text>
 <text class="TextShape"><tspan class="TextParagraph" font-family="Liberation Sans, sans-serif" font-size="353px" font-weight="400"><tspan class="TextPosition" x="652" y="2173"><tspan fill="rgb(0,0,0)" stroke="none">80%</tspan></tspan></tspan></text>
 <text class="TextShape"><tspan class="TextParagraph" font-family="Liberation Sans, sans-serif" font-size="353px" font-weight="400"><tspan class="TextPosition" x="652" y="1236"><tspan fill="rgb(0,0,0)" stroke="none">90%</tspan></tspan></tspan></text>
 <text class="TextShape"><tspan class="TextParagraph" font-family="Liberation Sans, sans-serif" font-size="353px" font-weight="400"><tspan class="TextPosition" x="467" y="299"><tspan fill="rgb(0,0,0)" stroke="none">100%</tspan></tspan></tspan></text>
 <path fill="rgb(0,69,134)" stroke="none" d="M 1975,917 L 1870,917 1870,706 2081,706 2081,917 1975,917 Z"/>
 <path fill="rgb(255,211,32)" stroke="none" d="M 1975,1667 L 1870,1667 1870,1456 2081,1456 2081,1667 1975,1667 Z"/>
 <text class="TextShape"><tspan class="TextParagraph" font-family="Liberation Sans, sans-serif" font-size="353px" font-weight="400"><tspan class="TextPosition" x="2181" y="890"><tspan fill="rgb(0,0,0)" stroke="none">kernel ex GPU maintainer self-commits of total commits</tspan></tspan></tspan></text>
 <text class="TextShape"><tspan class="TextParagraph" font-family="Liberation Sans, sans-serif" font-size="353px" font-weight="400"><tspan class="TextPosition" x="2181" y="1640"><tspan fill="rgb(0,0,0)" stroke="none">reviewed part of kernel ex GPU maintainer self-commits</tspan></tspan></tspan></text>
</svg>
