<?xml version="1.0" encoding="UTF-8"?>
<!DOCTYPE svg PUBLIC "-//W3C//DTD SVG 1.1//EN" "http://www.w3.org/Graphics/SVG/1.1/DTD/svg11.dtd">
<svg width="233mm" height="108mm" viewBox="0 0 23300 10800" version="1.1" xmlns="http://www.w3.org/2000/svg" stroke-width="28.222" stroke-linejoin="round" xml:space="preserve">
 <path fill="rgb(255,255,255)" stroke="none" d="M 11638,10810 L 0,10810 0,0 23275,0 23275,10810 11638,10810 Z"/>
 <path fill="none" stroke="rgb(179,179,179)" stroke-linejoin="round" d="M 12133,9359 L 1457,9359 1457,216 22810,216 22810,9359 12133,9359 Z"/>
 <path fill="none" stroke="rgb(179,179,179)" stroke-linejoin="round" d="M 22810,9358 L 1457,9358"/>
 <path fill="none" stroke="rgb(179,179,179)" stroke-linejoin="round" d="M 22810,8051 L 1457,8051"/>
 <path fill="none" stroke="rgb(179,179,179)" stroke-linejoin="round" d="M 22810,6745 L 1457,6745"/>
 <path fill="none" stroke="rgb(179,179,179)" stroke-linejoin="round" d="M 22810,5439 L 1457,5439"/>
 <path fill="none" stroke="rgb(179,179,179)" stroke-linejoin="round" d="M 22810,4133 L 1457,4133"/>
 <path fill="none" stroke="rgb(179,179,179)" stroke-linejoin="round" d="M 22810,2827 L 1457,2827"/>
 <path fill="none" stroke="rgb(179,179,179)" stroke-linejoin="round" d="M 22810,1521 L 1457,1521"/>
 <path fill="none" stroke="rgb(179,179,179)" stroke-linejoin="round" d="M 22810,215 L 1457,215"/>
 <path fill="none" stroke="rgb(179,179,179)" stroke-linejoin="round" d="M 1457,9508 L 1457,9358"/>
 <path fill="none" stroke="rgb(179,179,179)" stroke-linejoin="round" d="M 1457,9508 L 1457,9358"/>
 <path fill="none" stroke="rgb(179,179,179)" stroke-linejoin="round" d="M 2050,9508 L 2050,9358"/>
 <path fill="none" stroke="rgb(179,179,179)" stroke-linejoin="round" d="M 2050,9508 L 2050,9358"/>
 <path fill="none" stroke="rgb(179,179,179)" stroke-linejoin="round" d="M 2643,9508 L 2643,9358"/>
 <path fill="none" stroke="rgb(179,179,179)" stroke-linejoin="round" d="M 2643,9508 L 2643,9358"/>
 <path fill="none" stroke="rgb(179,179,179)" stroke-linejoin="round" d="M 3236,9508 L 3236,9358"/>
 <path fill="none" stroke="rgb(179,179,179)" stroke-linejoin="round" d="M 3236,9508 L 3236,9358"/>
 <path fill="none" stroke="rgb(179,179,179)" stroke-linejoin="round" d="M 3829,9508 L 3829,9358"/>
 <path fill="none" stroke="rgb(179,179,179)" stroke-linejoin="round" d="M 3829,9508 L 3829,9358"/>
 <path fill="none" stroke="rgb(179,179,179)" stroke-linejoin="round" d="M 4422,9508 L 4422,9358"/>
 <path fill="none" stroke="rgb(179,179,179)" stroke-linejoin="round" d="M 4422,9508 L 4422,9358"/>
 <path fill="none" stroke="rgb(179,179,179)" stroke-linejoin="round" d="M 5016,9508 L 5016,9358"/>
 <path fill="none" stroke="rgb(179,179,179)" stroke-linejoin="round" d="M 5016,9508 L 5016,9358"/>
 <path fill="none" stroke="rgb(179,179,179)" stroke-linejoin="round" d="M 5609,9508 L 5609,9358"/>
 <path fill="none" stroke="rgb(179,179,179)" stroke-linejoin="round" d="M 5609,9508 L 5609,9358"/>
 <path fill="none" stroke="rgb(179,179,179)" stroke-linejoin="round" d="M 6202,9508 L 6202,9358"/>
 <path fill="none" stroke="rgb(179,179,179)" stroke-linejoin="round" d="M 6202,9508 L 6202,9358"/>
 <path fill="none" stroke="rgb(179,179,179)" stroke-linejoin="round" d="M 6795,9508 L 6795,9358"/>
 <path fill="none" stroke="rgb(179,179,179)" stroke-linejoin="round" d="M 6795,9508 L 6795,9358"/>
 <path fill="none" stroke="rgb(179,179,179)" stroke-linejoin="round" d="M 7388,9508 L 7388,9358"/>
 <path fill="none" stroke="rgb(179,179,179)" stroke-linejoin="round" d="M 7388,9508 L 7388,9358"/>
 <path fill="none" stroke="rgb(179,179,179)" stroke-linejoin="round" d="M 7981,9508 L 7981,9358"/>
 <path fill="none" stroke="rgb(179,179,179)" stroke-linejoin="round" d="M 7981,9508 L 7981,9358"/>
 <path fill="none" stroke="rgb(179,179,179)" stroke-linejoin="round" d="M 8575,9508 L 8575,9358"/>
 <path fill="none" stroke="rgb(179,179,179)" stroke-linejoin="round" d="M 8575,9508 L 8575,9358"/>
 <path fill="none" stroke="rgb(179,179,179)" stroke-linejoin="round" d="M 9168,9508 L 9168,9358"/>
 <path fill="none" stroke="rgb(179,179,179)" stroke-linejoin="round" d="M 9168,9508 L 9168,9358"/>
 <path fill="none" stroke="rgb(179,179,179)" stroke-linejoin="round" d="M 9761,9508 L 9761,9358"/>
 <path fill="none" stroke="rgb(179,179,179)" stroke-linejoin="round" d="M 9761,9508 L 9761,9358"/>
 <path fill="none" stroke="rgb(179,179,179)" stroke-linejoin="round" d="M 10354,9508 L 10354,9358"/>
 <path fill="none" stroke="rgb(179,179,179)" stroke-linejoin="round" d="M 10354,9508 L 10354,9358"/>
 <path fill="none" stroke="rgb(179,179,179)" stroke-linejoin="round" d="M 10947,9508 L 10947,9358"/>
 <path fill="none" stroke="rgb(179,179,179)" stroke-linejoin="round" d="M 10947,9508 L 10947,9358"/>
 <path fill="none" stroke="rgb(179,179,179)" stroke-linejoin="round" d="M 11540,9508 L 11540,9358"/>
 <path fill="none" stroke="rgb(179,179,179)" stroke-linejoin="round" d="M 11540,9508 L 11540,9358"/>
 <path fill="none" stroke="rgb(179,179,179)" stroke-linejoin="round" d="M 12133,9508 L 12133,9358"/>
 <path fill="none" stroke="rgb(179,179,179)" stroke-linejoin="round" d="M 12133,9508 L 12133,9358"/>
 <path fill="none" stroke="rgb(179,179,179)" stroke-linejoin="round" d="M 12726,9508 L 12726,9358"/>
 <path fill="none" stroke="rgb(179,179,179)" stroke-linejoin="round" d="M 12726,9508 L 12726,9358"/>
 <path fill="none" stroke="rgb(179,179,179)" stroke-linejoin="round" d="M 13319,9508 L 13319,9358"/>
 <path fill="none" stroke="rgb(179,179,179)" stroke-linejoin="round" d="M 13319,9508 L 13319,9358"/>
 <path fill="none" stroke="rgb(179,179,179)" stroke-linejoin="round" d="M 13912,9508 L 13912,9358"/>
 <path fill="none" stroke="rgb(179,179,179)" stroke-linejoin="round" d="M 13912,9508 L 13912,9358"/>
 <path fill="none" stroke="rgb(179,179,179)" stroke-linejoin="round" d="M 14505,9508 L 14505,9358"/>
 <path fill="none" stroke="rgb(179,179,179)" stroke-linejoin="round" d="M 14505,9508 L 14505,9358"/>
 <path fill="none" stroke="rgb(179,179,179)" stroke-linejoin="round" d="M 15098,9508 L 15098,9358"/>
 <path fill="none" stroke="rgb(179,179,179)" stroke-linejoin="round" d="M 15098,9508 L 15098,9358"/>
 <path fill="none" stroke="rgb(179,179,179)" stroke-linejoin="round" d="M 15692,9508 L 15692,9358"/>
 <path fill="none" stroke="rgb(179,179,179)" stroke-linejoin="round" d="M 15692,9508 L 15692,9358"/>
 <path fill="none" stroke="rgb(179,179,179)" stroke-linejoin="round" d="M 16285,9508 L 16285,9358"/>
 <path fill="none" stroke="rgb(179,179,179)" stroke-linejoin="round" d="M 16285,9508 L 16285,9358"/>
 <path fill="none" stroke="rgb(179,179,179)" stroke-linejoin="round" d="M 16878,9508 L 16878,9358"/>
 <path fill="none" stroke="rgb(179,179,179)" stroke-linejoin="round" d="M 16878,9508 L 16878,9358"/>
 <path fill="none" stroke="rgb(179,179,179)" stroke-linejoin="round" d="M 17471,9508 L 17471,9358"/>
 <path fill="none" stroke="rgb(179,179,179)" stroke-linejoin="round" d="M 17471,9508 L 17471,9358"/>
 <path fill="none" stroke="rgb(179,179,179)" stroke-linejoin="round" d="M 18064,9508 L 18064,9358"/>
 <path fill="none" stroke="rgb(179,179,179)" stroke-linejoin="round" d="M 18064,9508 L 18064,9358"/>
 <path fill="none" stroke="rgb(179,179,179)" stroke-linejoin="round" d="M 18657,9508 L 18657,9358"/>
 <path fill="none" stroke="rgb(179,179,179)" stroke-linejoin="round" d="M 18657,9508 L 18657,9358"/>
 <path fill="none" stroke="rgb(179,179,179)" stroke-linejoin="round" d="M 19251,9508 L 19251,9358"/>
 <path fill="none" stroke="rgb(179,179,179)" stroke-linejoin="round" d="M 19251,9508 L 19251,9358"/>
 <path fill="none" stroke="rgb(179,179,179)" stroke-linejoin="round" d="M 19844,9508 L 19844,9358"/>
 <path fill="none" stroke="rgb(179,179,179)" stroke-linejoin="round" d="M 19844,9508 L 19844,9358"/>
 <path fill="none" stroke="rgb(179,179,179)" stroke-linejoin="round" d="M 20437,9508 L 20437,9358"/>
 <path fill="none" stroke="rgb(179,179,179)" stroke-linejoin="round" d="M 20437,9508 L 20437,9358"/>
 <path fill="none" stroke="rgb(179,179,179)" stroke-linejoin="round" d="M 21030,9508 L 21030,9358"/>
 <path fill="none" stroke="rgb(179,179,179)" stroke-linejoin="round" d="M 21030,9508 L 21030,9358"/>
 <path fill="none" stroke="rgb(179,179,179)" stroke-linejoin="round" d="M 21623,9508 L 21623,9358"/>
 <path fill="none" stroke="rgb(179,179,179)" stroke-linejoin="round" d="M 21623,9508 L 21623,9358"/>
 <path fill="none" stroke="rgb(179,179,179)" stroke-linejoin="round" d="M 22216,9508 L 22216,9358"/>
 <path fill="none" stroke="rgb(179,179,179)" stroke-linejoin="round" d="M 22216,9508 L 22216,9358"/>
 <path fill="none" stroke="rgb(179,179,179)" stroke-linejoin="round" d="M 22810,9508 L 22810,9358"/>
 <path fill="none" stroke="rgb(179,179,179)" stroke-linejoin="round" d="M 22810,9508 L 22810,9358"/>
 <path fill="none" stroke="rgb(179,179,179)" stroke-linejoin="round" d="M 1457,9358 L 22810,9358"/>
 <path fill="none" stroke="rgb(179,179,179)" stroke-linejoin="round" d="M 1307,9358 L 1457,9358"/>
 <path fill="none" stroke="rgb(179,179,179)" stroke-linejoin="round" d="M 1307,9358 L 1457,9358"/>
 <path fill="none" stroke="rgb(179,179,179)" stroke-linejoin="round" d="M 1307,8051 L 1457,8051"/>
 <path fill="none" stroke="rgb(179,179,179)" stroke-linejoin="round" d="M 1307,8051 L 1457,8051"/>
 <path fill="none" stroke="rgb(179,179,179)" stroke-linejoin="round" d="M 1307,6745 L 1457,6745"/>
 <path fill="none" stroke="rgb(179,179,179)" stroke-linejoin="round" d="M 1307,6745 L 1457,6745"/>
 <path fill="none" stroke="rgb(179,179,179)" stroke-linejoin="round" d="M 1307,5439 L 1457,5439"/>
 <path fill="none" stroke="rgb(179,179,179)" stroke-linejoin="round" d="M 1307,5439 L 1457,5439"/>
 <path fill="none" stroke="rgb(179,179,179)" stroke-linejoin="round" d="M 1307,4133 L 1457,4133"/>
 <path fill="none" stroke="rgb(179,179,179)" stroke-linejoin="round" d="M 1307,4133 L 1457,4133"/>
 <path fill="none" stroke="rgb(179,179,179)" stroke-linejoin="round" d="M 1307,2827 L 1457,2827"/>
 <path fill="none" stroke="rgb(179,179,179)" stroke-linejoin="round" d="M 1307,2827 L 1457,2827"/>
 <path fill="none" stroke="rgb(179,179,179)" stroke-linejoin="round" d="M 1307,1521 L 1457,1521"/>
 <path fill="none" stroke="rgb(179,179,179)" stroke-linejoin="round" d="M 1307,1521 L 1457,1521"/>
 <path fill="none" stroke="rgb(179,179,179)" stroke-linejoin="round" d="M 1307,215 L 1457,215"/>
 <path fill="none" stroke="rgb(179,179,179)" stroke-linejoin="round" d="M 1307,215 L 1457,215"/>
 <path fill="none" stroke="rgb(179,179,179)" stroke-linejoin="round" d="M 1457,9358 L 1457,215"/>
 <path fill="rgb(0,69,134)" stroke="none" d="M 22315,9358 L 22513,9358 22513,3122 22315,3122 22315,9358 Z"/>
 <path fill="rgb(0,69,134)" stroke="none" d="M 21722,9358 L 21920,9358 21920,2804 21722,2804 21722,9358 Z"/>
 <path fill="rgb(0,69,134)" stroke="none" d="M 21129,9358 L 21327,9358 21327,4290 21129,4290 21129,9358 Z"/>
 <path fill="rgb(0,69,134)" stroke="none" d="M 20536,9358 L 20733,9358 20733,2905 20536,2905 20536,9358 Z"/>
 <path fill="rgb(0,69,134)" stroke="none" d="M 19943,9358 L 20140,9358 20140,1351 19943,1351 19943,9358 Z"/>
 <path fill="rgb(0,69,134)" stroke="none" d="M 19349,9358 L 19547,9358 19547,3209 19349,3209 19349,9358 Z"/>
 <path fill="rgb(0,69,134)" stroke="none" d="M 18756,9358 L 18954,9358 18954,2673 18756,2673 18756,9358 Z"/>
 <path fill="rgb(0,69,134)" stroke="none" d="M 18163,9358 L 18361,9358 18361,1777 18163,1777 18163,9358 Z"/>
 <path fill="rgb(0,69,134)" stroke="none" d="M 17570,9358 L 17768,9358 17768,1408 17570,1408 17570,9358 Z"/>
 <path fill="rgb(0,69,134)" stroke="none" d="M 16977,9358 L 17174,9358 17174,3266 16977,3266 16977,9358 Z"/>
 <path fill="rgb(0,69,134)" stroke="none" d="M 16384,9358 L 16581,9358 16581,3619 16384,3619 16384,9358 Z"/>
 <path fill="rgb(0,69,134)" stroke="none" d="M 15790,9358 L 15988,9358 15988,2992 15790,2992 15790,9358 Z"/>
 <path fill="rgb(0,69,134)" stroke="none" d="M 15197,9358 L 15395,9358 15395,5433 15197,5433 15197,9358 Z"/>
 <path fill="rgb(0,69,134)" stroke="none" d="M 14604,9358 L 14802,9358 14802,3527 14604,3527 14604,9358 Z"/>
 <path fill="rgb(0,69,134)" stroke="none" d="M 14011,9358 L 14209,9358 14209,1803 14011,1803 14011,9358 Z"/>
 <path fill="rgb(0,69,134)" stroke="none" d="M 13418,9358 L 13615,9358 13615,4301 13418,4301 13418,9358 Z"/>
 <path fill="rgb(0,69,134)" stroke="none" d="M 12825,9358 L 13022,9358 13022,4742 12825,4742 12825,9358 Z"/>
 <path fill="rgb(0,69,134)" stroke="none" d="M 12231,9358 L 12429,9358 12429,3232 12231,3232 12231,9358 Z"/>
 <path fill="rgb(0,69,134)" stroke="none" d="M 11638,9358 L 11836,9358 11836,4951 11638,4951 11638,9358 Z"/>
 <path fill="rgb(0,69,134)" stroke="none" d="M 11046,9358 L 11244,9358 11244,4246 11046,4246 11046,9358 Z"/>
 <path fill="rgb(0,69,134)" stroke="none" d="M 10453,9358 L 10651,9358 10651,3731 10453,3731 10453,9358 Z"/>
 <path fill="rgb(0,69,134)" stroke="none" d="M 9860,9358 L 10057,9358 10057,2793 9860,2793 9860,9358 Z"/>
 <path fill="rgb(0,69,134)" stroke="none" d="M 9267,9358 L 9464,9358 9464,3762 9267,3762 9267,9358 Z"/>
 <path fill="rgb(0,69,134)" stroke="none" d="M 8673,9358 L 8871,9358 8871,3180 8673,3180 8673,9358 Z"/>
 <path fill="rgb(0,69,134)" stroke="none" d="M 8080,9358 L 8278,9358 8278,3642 8080,3642 8080,9358 Z"/>
 <path fill="rgb(0,69,134)" stroke="none" d="M 7487,9358 L 7685,9358 7685,3587 7487,3587 7487,9358 Z"/>
 <path fill="rgb(0,69,134)" stroke="none" d="M 6894,9358 L 7092,9358 7092,1448 6894,1448 6894,9358 Z"/>
 <path fill="rgb(0,69,134)" stroke="none" d="M 6301,9358 L 6498,9358 6498,1531 6301,1531 6301,9358 Z"/>
 <path fill="rgb(0,69,134)" stroke="none" d="M 5708,9358 L 5905,9358 5905,1761 5708,1761 5708,9358 Z"/>
 <path fill="rgb(0,69,134)" stroke="none" d="M 5114,9358 L 5312,9358 5312,1505 5114,1505 5114,9358 Z"/>
 <path fill="rgb(0,69,134)" stroke="none" d="M 4521,9358 L 4719,9358 4719,3462 4521,3462 4521,9358 Z"/>
 <path fill="rgb(0,69,134)" stroke="none" d="M 3928,9358 L 4126,9358 4126,1913 3928,1913 3928,9358 Z"/>
 <path fill="rgb(0,69,134)" stroke="none" d="M 3335,9358 L 3533,9358 3533,1236 3335,1236 3335,9358 Z"/>
 <path fill="rgb(0,69,134)" stroke="none" d="M 2742,9358 L 2939,9358 2939,1871 2742,1871 2742,9358 Z"/>
 <path fill="rgb(0,69,134)" stroke="none" d="M 2149,9358 L 2346,9358 2346,1678 2149,1678 2149,9358 Z"/>
 <path fill="rgb(0,69,134)" stroke="none" d="M 1555,9358 L 1753,9358 1753,3877 1555,3877 1555,9358 Z"/>
 <path fill="rgb(255,211,32)" stroke="none" d="M 22513,9358 L 22711,9358 22711,6335 22513,6335 22513,9358 Z"/>
 <path fill="rgb(255,211,32)" stroke="none" d="M 21920,9358 L 22117,9358 22117,6319 21920,6319 21920,9358 Z"/>
 <path fill="rgb(255,211,32)" stroke="none" d="M 21327,9358 L 21524,9358 21524,7406 21327,7406 21327,9358 Z"/>
 <path fill="rgb(255,211,32)" stroke="none" d="M 20733,9358 L 20931,9358 20931,6431 20733,6431 20733,9358 Z"/>
 <path fill="rgb(255,211,32)" stroke="none" d="M 20140,9358 L 20338,9358 20338,5770 20140,5770 20140,9358 Z"/>
 <path fill="rgb(255,211,32)" stroke="none" d="M 19547,9358 L 19745,9358 19745,6390 19547,6390 19547,9358 Z"/>
 <path fill="rgb(255,211,32)" stroke="none" d="M 18954,9358 L 19152,9358 19152,6889 18954,6889 18954,9358 Z"/>
 <path fill="rgb(255,211,32)" stroke="none" d="M 18361,9358 L 18558,9358 18558,6335 18361,6335 18361,9358 Z"/>
 <path fill="rgb(255,211,32)" stroke="none" d="M 17768,9358 L 17965,9358 17965,6753 17768,6753 17768,9358 Z"/>
 <path fill="rgb(255,211,32)" stroke="none" d="M 17174,9358 L 17372,9358 17372,6823 17174,6823 17174,9358 Z"/>
 <path fill="rgb(255,211,32)" stroke="none" d="M 16581,9358 L 16779,9358 16779,7043 16581,7043 16581,9358 Z"/>
 <path fill="rgb(255,211,32)" stroke="none" d="M 15988,9358 L 16186,9358 16186,7006 15988,7006 15988,9358 Z"/>
 <path fill="rgb(255,211,32)" stroke="none" d="M 15395,9358 L 15593,9358 15593,8289 15395,8289 15395,9358 Z"/>
 <path fill="rgb(255,211,32)" stroke="none" d="M 14802,9358 L 14999,9358 14999,7727 14802,7727 14802,9358 Z"/>
 <path fill="rgb(255,211,32)" stroke="none" d="M 14209,9358 L 14406,9358 14406,7160 14209,7160 14209,9358 Z"/>
 <path fill="rgb(255,211,32)" stroke="none" d="M 13615,9358 L 13813,9358 13813,8386 13615,8386 13615,9358 Z"/>
 <path fill="rgb(255,211,32)" stroke="none" d="M 13022,9358 L 13220,9358 13220,8346 13022,8346 13022,9358 Z"/>
 <path fill="rgb(255,211,32)" stroke="none" d="M 12429,9358 L 12627,9358 12627,7795 12429,7795 12429,9358 Z"/>
 <path fill="rgb(255,211,32)" stroke="none" d="M 11836,9358 L 12034,9358 12034,8242 11836,8242 11836,9358 Z"/>
 <path fill="rgb(255,211,32)" stroke="none" d="M 11244,9358 L 11441,9358 11441,7727 11244,7727 11244,9358 Z"/>
 <path fill="rgb(255,211,32)" stroke="none" d="M 10651,9358 L 10848,9358 10848,7500 10651,7500 10651,9358 Z"/>
 <path fill="rgb(255,211,32)" stroke="none" d="M 10057,9358 L 10255,9358 10255,7108 10057,7108 10057,9358 Z"/>
 <path fill="rgb(255,211,32)" stroke="none" d="M 9464,9358 L 9662,9358 9662,7879 9464,7879 9464,9358 Z"/>
 <path fill="rgb(255,211,32)" stroke="none" d="M 8871,9358 L 9069,9358 9069,7735 8871,7735 8871,9358 Z"/>
 <path fill="rgb(255,211,32)" stroke="none" d="M 8278,9358 L 8476,9358 8476,7748 8278,7748 8278,9358 Z"/>
 <path fill="rgb(255,211,32)" stroke="none" d="M 7685,9358 L 7882,9358 7882,7654 7685,7654 7685,9358 Z"/>
 <path fill="rgb(255,211,32)" stroke="none" d="M 7092,9358 L 7289,9358 7289,7367 7092,7367 7092,9358 Z"/>
 <path fill="rgb(255,211,32)" stroke="none" d="M 6498,9358 L 6696,9358 6696,7082 6498,7082 6498,9358 Z"/>
 <path fill="rgb(255,211,32)" stroke="none" d="M 5905,9358 L 6103,9358 6103,7654 5905,7654 5905,9358 Z"/>
 <path fill="rgb(255,211,32)" stroke="none" d="M 5312,9358 L 5510,9358 5510,6983 5312,6983 5312,9358 Z"/>
 <path fill="rgb(255,211,32)" stroke="none" d="M 4719,9358 L 4917,9358 4917,7829 4719,7829 4719,9358 Z"/>
 <path fill="rgb(255,211,32)" stroke="none" d="M 4126,9358 L 4323,9358 4323,7746 4126,7746 4126,9358 Z"/>
 <path fill="rgb(255,211,32)" stroke="none" d="M 3533,9358 L 3730,9358 3730,7270 3533,7270 3533,9358 Z"/>
 <path fill="rgb(255,211,32)" stroke="none" d="M 2939,9358 L 3137,9358 3137,8135 2939,8135 2939,9358 Z"/>
 <path fill="rgb(255,211,32)" stroke="none" d="M 2346,9358 L 2544,9358 2544,8132 2346,8132 2346,9358 Z"/>
 <path fill="rgb(255,211,32)" stroke="none" d="M 1753,9358 L 1951,9358 1951,8046 1753,8046 1753,9358 Z"/>
 <text class="TextShape" transform="translate(1340,10244) rotate(-44.9) translate(-1340,-10244)"><tspan class="TextParagraph" font-family="Liberation Sans, sans-serif" font-size="353px" font-weight="400"><tspan class="TextPosition" x="1340" y="10244"><tspan fill="rgb(0,0,0)" stroke="none">v3.1</tspan></tspan></tspan></text>
 <text class="TextShape" transform="translate(1933,10244) rotate(-44.9) translate(-1933,-10244)"><tspan class="TextParagraph" font-family="Liberation Sans, sans-serif" font-size="353px" font-weight="400"><tspan class="TextPosition" x="1933" y="10244"><tspan fill="rgb(0,0,0)" stroke="none">v3.2</tspan></tspan></tspan></text>
 <text class="TextShape" transform="translate(2526,10244) rotate(-44.9) translate(-2526,-10244)"><tspan class="TextParagraph" font-family="Liberation Sans, sans-serif" font-size="353px" font-weight="400"><tspan class="TextPosition" x="2526" y="10244"><tspan fill="rgb(0,0,0)" stroke="none">v3.3</tspan></tspan></tspan></text>
 <text class="TextShape" transform="translate(3120,10244) rotate(-44.9) translate(-3120,-10244)"><tspan class="TextParagraph" font-family="Liberation Sans, sans-serif" font-size="353px" font-weight="400"><tspan class="TextPosition" x="3120" y="10244"><tspan fill="rgb(0,0,0)" stroke="none">v3.4</tspan></tspan></tspan></text>
 <text class="TextShape" transform="translate(3712,10244) rotate(-44.9) translate(-3712,-10244)"><tspan class="TextParagraph" font-family="Liberation Sans, sans-serif" font-size="353px" font-weight="400"><tspan class="TextPosition" x="3712" y="10244"><tspan fill="rgb(0,0,0)" stroke="none">v3.5</tspan></tspan></tspan></text>
 <text class="TextShape" transform="translate(4305,10244) rotate(-44.9) translate(-4305,-10244)"><tspan class="TextParagraph" font-family="Liberation Sans, sans-serif" font-size="353px" font-weight="400"><tspan class="TextPosition" x="4305" y="10244"><tspan fill="rgb(0,0,0)" stroke="none">v3.6</tspan></tspan></tspan></text>
 <text class="TextShape" transform="translate(4898,10244) rotate(-44.9) translate(-4898,-10244)"><tspan class="TextParagraph" font-family="Liberation Sans, sans-serif" font-size="353px" font-weight="400"><tspan class="TextPosition" x="4898" y="10244"><tspan fill="rgb(0,0,0)" stroke="none">v3.7</tspan></tspan></tspan></text>
 <text class="TextShape" transform="translate(5491,10244) rotate(-44.9) translate(-5491,-10244)"><tspan class="TextParagraph" font-family="Liberation Sans, sans-serif" font-size="353px" font-weight="400"><tspan class="TextPosition" x="5491" y="10244"><tspan fill="rgb(0,0,0)" stroke="none">v3.8</tspan></tspan></tspan></text>
 <text class="TextShape" transform="translate(6084,10244) rotate(-44.9) translate(-6084,-10244)"><tspan class="TextParagraph" font-family="Liberation Sans, sans-serif" font-size="353px" font-weight="400"><tspan class="TextPosition" x="6084" y="10244"><tspan fill="rgb(0,0,0)" stroke="none">v3.9</tspan></tspan></tspan></text>
 <text class="TextShape" transform="translate(6547,10376) rotate(-44.9) translate(-6547,-10376)"><tspan class="TextParagraph" font-family="Liberation Sans, sans-serif" font-size="353px" font-weight="400"><tspan class="TextPosition" x="6547" y="10376"><tspan fill="rgb(0,0,0)" stroke="none">v3.10</tspan></tspan></tspan></text>
 <text class="TextShape" transform="translate(7140,10376) rotate(-44.9) translate(-7140,-10376)"><tspan class="TextParagraph" font-family="Liberation Sans, sans-serif" font-size="353px" font-weight="400"><tspan class="TextPosition" x="7140" y="10376"><tspan fill="rgb(0,0,0)" stroke="none">v3.11</tspan></tspan></tspan></text>
 <text class="TextShape" transform="translate(7733,10376) rotate(-44.9) translate(-7733,-10376)"><tspan class="TextParagraph" font-family="Liberation Sans, sans-serif" font-size="353px" font-weight="400"><tspan class="TextPosition" x="7733" y="10376"><tspan fill="rgb(0,0,0)" stroke="none">v3.12</tspan></tspan></tspan></text>
 <text class="TextShape" transform="translate(8326,10376) rotate(-44.9) translate(-8326,-10376)"><tspan class="TextParagraph" font-family="Liberation Sans, sans-serif" font-size="353px" font-weight="400"><tspan class="TextPosition" x="8326" y="10376"><tspan fill="rgb(0,0,0)" stroke="none">v3.13</tspan></tspan></tspan></text>
 <text class="TextShape" transform="translate(8919,10376) rotate(-44.9) translate(-8919,-10376)"><tspan class="TextParagraph" font-family="Liberation Sans, sans-serif" font-size="353px" font-weight="400"><tspan class="TextPosition" x="8919" y="10376"><tspan fill="rgb(0,0,0)" stroke="none">v3.14</tspan></tspan></tspan></text>
 <text class="TextShape" transform="translate(9512,10376) rotate(-44.9) translate(-9512,-10376)"><tspan class="TextParagraph" font-family="Liberation Sans, sans-serif" font-size="353px" font-weight="400"><tspan class="TextPosition" x="9512" y="10376"><tspan fill="rgb(0,0,0)" stroke="none">v3.15</tspan></tspan></tspan></text>
 <text class="TextShape" transform="translate(10106,10376) rotate(-44.9) translate(-10106,-10376)"><tspan class="TextParagraph" font-family="Liberation Sans, sans-serif" font-size="353px" font-weight="400"><tspan class="TextPosition" x="10106" y="10376"><tspan fill="rgb(0,0,0)" stroke="none">v3.16</tspan></tspan></tspan></text>
 <text class="TextShape" transform="translate(10699,10376) rotate(-44.9) translate(-10699,-10376)"><tspan class="TextParagraph" font-family="Liberation Sans, sans-serif" font-size="353px" font-weight="400"><tspan class="TextPosition" x="10699" y="10376"><tspan fill="rgb(0,0,0)" stroke="none">v3.17</tspan></tspan></tspan></text>
 <text class="TextShape" transform="translate(11292,10376) rotate(-44.9) translate(-11292,-10376)"><tspan class="TextParagraph" font-family="Liberation Sans, sans-serif" font-size="353px" font-weight="400"><tspan class="TextPosition" x="11292" y="10376"><tspan fill="rgb(0,0,0)" stroke="none">v3.18</tspan></tspan></tspan></text>
 <text class="TextShape" transform="translate(11885,10376) rotate(-44.9) translate(-11885,-10376)"><tspan class="TextParagraph" font-family="Liberation Sans, sans-serif" font-size="353px" font-weight="400"><tspan class="TextPosition" x="11885" y="10376"><tspan fill="rgb(0,0,0)" stroke="none">v3.19</tspan></tspan></tspan></text>
 <text class="TextShape" transform="translate(12609,10244) rotate(-44.9) translate(-12609,-10244)"><tspan class="TextParagraph" font-family="Liberation Sans, sans-serif" font-size="353px" font-weight="400"><tspan class="TextPosition" x="12609" y="10244"><tspan fill="rgb(0,0,0)" stroke="none">v4.0</tspan></tspan></tspan></text>
 <text class="TextShape" transform="translate(13202,10244) rotate(-44.9) translate(-13202,-10244)"><tspan class="TextParagraph" font-family="Liberation Sans, sans-serif" font-size="353px" font-weight="400"><tspan class="TextPosition" x="13202" y="10244"><tspan fill="rgb(0,0,0)" stroke="none">v4.1</tspan></tspan></tspan></text>
 <text class="TextShape" transform="translate(13796,10244) rotate(-44.9) translate(-13796,-10244)"><tspan class="TextParagraph" font-family="Liberation Sans, sans-serif" font-size="353px" font-weight="400"><tspan class="TextPosition" x="13796" y="10244"><tspan fill="rgb(0,0,0)" stroke="none">v4.2</tspan></tspan></tspan></text>
 <text class="TextShape" transform="translate(14389,10244) rotate(-44.9) translate(-14389,-10244)"><tspan class="TextParagraph" font-family="Liberation Sans, sans-serif" font-size="353px" font-weight="400"><tspan class="TextPosition" x="14389" y="10244"><tspan fill="rgb(0,0,0)" stroke="none">v4.3</tspan></tspan></tspan></text>
 <text class="TextShape" transform="translate(14982,10244) rotate(-44.9) translate(-14982,-10244)"><tspan class="TextParagraph" font-family="Liberation Sans, sans-serif" font-size="353px" font-weight="400"><tspan class="TextPosition" x="14982" y="10244"><tspan fill="rgb(0,0,0)" stroke="none">v4.4</tspan></tspan></tspan></text>
 <text class="TextShape" transform="translate(15575,10244) rotate(-44.9) translate(-15575,-10244)"><tspan class="TextParagraph" font-family="Liberation Sans, sans-serif" font-size="353px" font-weight="400"><tspan class="TextPosition" x="15575" y="10244"><tspan fill="rgb(0,0,0)" stroke="none">v4.5</tspan></tspan></tspan></text>
 <text class="TextShape" transform="translate(16168,10244) rotate(-44.9) translate(-16168,-10244)"><tspan class="TextParagraph" font-family="Liberation Sans, sans-serif" font-size="353px" font-weight="400"><tspan class="TextPosition" x="16168" y="10244"><tspan fill="rgb(0,0,0)" stroke="none">v4.6</tspan></tspan></tspan></text>
 <text class="TextShape" transform="translate(16761,10244) rotate(-44.9) translate(-16761,-10244)"><tspan class="TextParagraph" font-family="Liberation Sans, sans-serif" font-size="353px" font-weight="400"><tspan class="TextPosition" x="16761" y="10244"><tspan fill="rgb(0,0,0)" stroke="none">v4.7</tspan></tspan></tspan></text>
 <text class="TextShape" transform="translate(17355,10244) rotate(-44.9) translate(-17355,-10244)"><tspan class="TextParagraph" font-family="Liberation Sans, sans-serif" font-size="353px" font-weight="400"><tspan class="TextPosition" x="17355" y="10244"><tspan fill="rgb(0,0,0)" stroke="none">v4.8</tspan></tspan></tspan></text>
 <text class="TextShape" transform="translate(17948,10244) rotate(-44.9) translate(-17948,-10244)"><tspan class="TextParagraph" font-family="Liberation Sans, sans-serif" font-size="353px" font-weight="400"><tspan class="TextPosition" x="17948" y="10244"><tspan fill="rgb(0,0,0)" stroke="none">v4.9</tspan></tspan></tspan></text>
 <text class="TextShape" transform="translate(18410,10376) rotate(-44.9) translate(-18410,-10376)"><tspan class="TextParagraph" font-family="Liberation Sans, sans-serif" font-size="353px" font-weight="400"><tspan class="TextPosition" x="18410" y="10376"><tspan fill="rgb(0,0,0)" stroke="none">v4.10</tspan></tspan></tspan></text>
 <text class="TextShape" transform="translate(19003,10376) rotate(-44.9) translate(-19003,-10376)"><tspan class="TextParagraph" font-family="Liberation Sans, sans-serif" font-size="353px" font-weight="400"><tspan class="TextPosition" x="19003" y="10376"><tspan fill="rgb(0,0,0)" stroke="none">v4.11</tspan></tspan></tspan></text>
 <text class="TextShape" transform="translate(19596,10376) rotate(-44.9) translate(-19596,-10376)"><tspan class="TextParagraph" font-family="Liberation Sans, sans-serif" font-size="353px" font-weight="400"><tspan class="TextPosition" x="19596" y="10376"><tspan fill="rgb(0,0,0)" stroke="none">v4.12</tspan></tspan></tspan></text>
 <text class="TextShape" transform="translate(20189,10376) rotate(-44.9) translate(-20189,-10376)"><tspan class="TextParagraph" font-family="Liberation Sans, sans-serif" font-size="353px" font-weight="400"><tspan class="TextPosition" x="20189" y="10376"><tspan fill="rgb(0,0,0)" stroke="none">v4.13</tspan></tspan></tspan></text>
 <text class="TextShape" transform="translate(20783,10376) rotate(-44.9) translate(-20783,-10376)"><tspan class="TextParagraph" font-family="Liberation Sans, sans-serif" font-size="353px" font-weight="400"><tspan class="TextPosition" x="20783" y="10376"><tspan fill="rgb(0,0,0)" stroke="none">v4.14</tspan></tspan></tspan></text>
 <text class="TextShape" transform="translate(21376,10376) rotate(-44.9) translate(-21376,-10376)"><tspan class="TextParagraph" font-family="Liberation Sans, sans-serif" font-size="353px" font-weight="400"><tspan class="TextPosition" x="21376" y="10376"><tspan fill="rgb(0,0,0)" stroke="none">v4.15</tspan></tspan></tspan></text>
 <text class="TextShape" transform="translate(21969,10376) rotate(-44.9) translate(-21969,-10376)"><tspan class="TextParagraph" font-family="Liberation Sans, sans-serif" font-size="353px" font-weight="400"><tspan class="TextPosition" x="21969" y="10376"><tspan fill="rgb(0,0,0)" stroke="none">v4.16</tspan></tspan></tspan></text>
 <text class="TextShape"><tspan class="TextParagraph" font-family="Liberation Sans, sans-serif" font-size="353px" font-weight="400"><tspan class="TextPosition" x="1022" y="9438"><tspan fill="rgb(0,0,0)" stroke="none">0</tspan></tspan></tspan></text>
 <text class="TextShape"><tspan class="TextParagraph" font-family="Liberation Sans, sans-serif" font-size="353px" font-weight="400"><tspan class="TextPosition" x="651" y="8131"><tspan fill="rgb(0,0,0)" stroke="none">500</tspan></tspan></tspan></text>
 <text class="TextShape"><tspan class="TextParagraph" font-family="Liberation Sans, sans-serif" font-size="353px" font-weight="400"><tspan class="TextPosition" x="466" y="6825"><tspan fill="rgb(0,0,0)" stroke="none">1000</tspan></tspan></tspan></text>
 <text class="TextShape"><tspan class="TextParagraph" font-family="Liberation Sans, sans-serif" font-size="353px" font-weight="400"><tspan class="TextPosition" x="466" y="5519"><tspan fill="rgb(0,0,0)" stroke="none">1500</tspan></tspan></tspan></text>
 <text class="TextShape"><tspan class="TextParagraph" font-family="Liberation Sans, sans-serif" font-size="353px" font-weight="400"><tspan class="TextPosition" x="466" y="4212"><tspan fill="rgb(0,0,0)" stroke="none">2000</tspan></tspan></tspan></text>
 <text class="TextShape"><tspan class="TextParagraph" font-family="Liberation Sans, sans-serif" font-size="353px" font-weight="400"><tspan class="TextPosition" x="466" y="2906"><tspan fill="rgb(0,0,0)" stroke="none">2500</tspan></tspan></tspan></text>
 <text class="TextShape"><tspan class="TextParagraph" font-family="Liberation Sans, sans-serif" font-size="353px" font-weight="400"><tspan class="TextPosition" x="466" y="1600"><tspan fill="rgb(0,0,0)" stroke="none">3000</tspan></tspan></tspan></text>
 <text class="TextShape"><tspan class="TextParagraph" font-family="Liberation Sans, sans-serif" font-size="353px" font-weight="400"><tspan class="TextPosition" x="466" y="294"><tspan fill="rgb(0,0,0)" stroke="none">3500</tspan></tspan></tspan></text>
 <path fill="rgb(0,69,134)" stroke="none" d="M 2060,857 L 1955,857 1955,646 2166,646 2166,857 2060,857 Z"/>
 <path fill="rgb(255,211,32)" stroke="none" d="M 2060,1415 L 1955,1415 1955,1204 2166,1204 2166,1415 2060,1415 Z"/>
 <text class="TextShape"><tspan class="TextParagraph" font-family="Liberation Sans, sans-serif" font-size="353px" font-weight="400"><tspan class="TextPosition" x="2266" y="830"><tspan fill="rgb(0,0,0)" stroke="none">maintainer self-commits</tspan></tspan></tspan></text>
 <text class="TextShape"><tspan class="TextParagraph" font-family="Liberation Sans, sans-serif" font-size="353px" font-weight="400"><tspan class="TextPosition" x="2266" y="1388"><tspan fill="rgb(0,0,0)" stroke="none">reviewed maintainer self-commits</tspan></tspan></tspan></text>
</svg>
